<svg width="128" height="128" viewBox="0 0 128 128" fill="none" xmlns="http://www.w3.org/2000/svg">
<g clip-path="url(#clip0_31_4)">
<path fill-rule="evenodd" clip-rule="evenodd" d="M8.66656 55.3334L1.09531e-06 64C1.09531e-06 28.6538 28.6538 1.09531e-06 64 -2.10886e-06L55.3334 8.66656C31.3454 12.3933 12.3933 31.3454 8.66656 55.3334ZM8.66656 72.6666L1.09531e-06 64C1.09531e-06 99.3462 28.6538 128 64 128C99.3462 128 128 99.3462 128 64C128 28.6538 99.3462 1.09531e-06 64 -2.10886e-06L72.6666 8.66656C96.6546 12.3933 115.607 31.3454 119.333 55.3334L128 64L119.333 72.6666C115.607 96.6546 96.6546 115.607 72.6666 119.333L64 128L55.3334 119.333C31.3454 115.607 12.3933 96.6546 8.66656 72.6666Z" fill="#0095FF"/>
<path fill-rule="evenodd" clip-rule="evenodd" d="M105.584 78.4159C107.15 73.8995 108 69.0491 108 64C108 58.9509 107.15 54.1005 105.584 49.5841L120 64L105.584 78.4159ZM78.4159 105.584C73.8995 107.15 69.0491 108 64 108C58.9509 108 54.1005 107.15 49.5841 105.584L64 120L78.4159 105.584ZM22.4159 78.4159C20.8504 73.8995 20 69.0491 20 64C20 58.9509 20.8504 54.1005 22.4159 49.5841L8 64L22.4159 78.4159ZM49.5841 22.4159L64 8L78.4159 22.4159C73.8995 20.8504 69.0491 20 64 20C58.9509 20 54.1005 20.8504 49.5841 22.4159Z" fill="#0095FF"/>
<path d="M42.4142 87.6691L43.8284 86.2548L41 83.4264L39.5858 84.8406L42.4142 87.6691ZM46.6569 83.4264L49.4853 80.598L46.6569 77.7696L43.8284 80.598L46.6569 83.4264ZM52.3137 77.7696L55.1421 74.9411L52.3137 72.1127L49.4853 74.9411L52.3137 77.7696ZM57.9706 72.1127L60.799 69.2843L57.9706 66.4558L55.1421 69.2843L57.9706 72.1127ZM63.6274 66.4558L66.4558 63.6274L63.6274 60.799L60.799 63.6274L63.6274 66.4558ZM69.2843 60.799L72.1127 57.9706L69.2843 55.1421L66.4558 57.9706L69.2843 60.799ZM74.9411 55.1421L77.7696 52.3137L74.9411 49.4853L72.1127 52.3137L74.9411 55.1421ZM80.598 49.4853L83.4264 46.6569L80.598 43.8284L77.7696 46.6569L80.598 49.4853ZM86.2548 43.8284L87.669 42.4142L84.8406 39.5858L83.4264 41L86.2548 43.8284Z" fill="#0095FF"/>
<path d="M49 57V41" stroke="#0095FF" stroke-width="4"/>
<circle cx="78" cy="78" r="6" stroke="#0095FF" stroke-width="4"/>
</g>
<defs>
<clipPath id="clip0_31_4">
<rect width="128" height="128" fill="white"/>
</clipPath>
</defs>
</svg>
