<svg version="1.1" xmlns="http://www.w3.org/2000/svg" xmlns:xlink="http://www.w3.org/1999/xlink" width="535" height="390"><metadata>{ // JSON5
  v: 6,
  components: {
    in3: {type: 'in', pos: [90, 40], orient: 's', id: [20, 21], name: 'A', bits: 2},
    disp0: {type: 'display', pos: [505, 220], id: '22-24', bits: 3, name: 'Somme'},
    in0: {type: 'in', pos: [30, 40], orient: 's', id: [29, 30], name: 'B', bits: 2},
    xor0: {type: 'xor', pos: [235, 140], in: [31, 32], out: 33},
    and0: {type: 'and', pos: [235, 205], in: [34, 35], out: 36},
    xor1: {type: 'xor', pos: [235, 275], in: [37, 38], out: 39},
    and1: {type: 'and', pos: [235, 340], in: [40, 41], out: 42},
    or0: {type: 'or', pos: [435, 285], in: [43, 44], out: 45},
    and2: {type: 'and', pos: [355, 275], in: [46, 47], out: 48},
    xor2: {type: 'xor', pos: [355, 205], in: [49, 50], out: 51},
    disp1: {type: 'display', pos: [505, 60], id: '63-65', bits: 3, name: 'A'},
    disp2: {type: 'display', pos: [505, 140], id: '70-72', bits: 3, name: 'B'},
  },
  wires: [[20, 31], [29, 32], [20, 34], [29, 35], [33, 22], [21, 37], [30, 38], [21, 40], [30, 41], [45, 24], [42, 44], [48, 43], [36, 46], [36, 49], [39, 50], [39, 47], [51, 23], [20, 63], [21, 64], [29, 70], [30, 71]]
}</metadata><g/><g><g class="background"/><g class="wires"><path fill="none" stroke="rgb(80,80,80)" stroke-miterlimit="10" stroke-width="4" stroke-dasharray="123.97613525390625,123.97613525390625" paint-order="fill stroke markers" d="M100 60 C100 85,163.33333333333334 130,195 130 "/><path fill="none" stroke="rgb(52,58,64)" stroke-miterlimit="10" stroke-width="2" stroke-dasharray="123.97613525390625,123.97613525390625" paint-order="fill stroke markers" d="M100 60 C100 85,163.33333333333334 130,195 130 "/><path fill="none" stroke="rgb(80,80,80)" stroke-miterlimit="10" stroke-width="4" stroke-dasharray="186.70645141601562,186.70645141601562" paint-order="fill stroke markers" d="M40 60 C40 90,143.33333333333334 150,195 150 "/><path fill="none" stroke="rgb(52,58,64)" stroke-miterlimit="10" stroke-width="2" stroke-dasharray="186.70645141601562,186.70645141601562" paint-order="fill stroke markers" d="M40 60 C40 90,143.33333333333334 150,195 150 "/><path fill="none" stroke="rgb(80,80,80)" stroke-miterlimit="10" stroke-width="4" stroke-dasharray="172.79664611816406,172.79664611816406" paint-order="fill stroke markers" d="M100 60 C100 105,163.33333333333334 195,195 195 "/><path fill="none" stroke="rgb(52,58,64)" stroke-miterlimit="10" stroke-width="2" stroke-dasharray="172.79664611816406,172.79664611816406" paint-order="fill stroke markers" d="M100 60 C100 105,163.33333333333334 195,195 195 "/><path fill="none" stroke="rgb(80,80,80)" stroke-miterlimit="10" stroke-width="4" stroke-dasharray="230.37135314941406,230.37135314941406" paint-order="fill stroke markers" d="M40 60 C40 111.66666666666666,143.33333333333334 215,195 215 "/><path fill="none" stroke="rgb(52,58,64)" stroke-miterlimit="10" stroke-width="2" stroke-dasharray="230.37135314941406,230.37135314941406" paint-order="fill stroke markers" d="M40 60 C40 111.66666666666666,143.33333333333334 215,195 215 "/><path fill="none" stroke="rgb(80,80,80)" stroke-miterlimit="10" stroke-width="4" stroke-dasharray="210.41531372070312,210.41531372070312" paint-order="fill stroke markers" d="M275 140 C341.6666666666667 140,408.3333333333333 200,475 200 "/><path fill="none" stroke="rgb(52,58,64)" stroke-miterlimit="10" stroke-width="2" stroke-dasharray="210.41531372070312,210.41531372070312" paint-order="fill stroke markers" d="M275 140 C341.6666666666667 140,408.3333333333333 200,475 200 "/><path fill="none" stroke="rgb(80,80,80)" stroke-miterlimit="10" stroke-width="4" stroke-dasharray="244.60757446289062,244.60757446289062" paint-order="fill stroke markers" d="M80 60 C80 128.33333333333331,156.66666666666666 265,195 265 "/><path fill="none" stroke="rgb(52,58,64)" stroke-miterlimit="10" stroke-width="2" stroke-dasharray="244.60757446289062,244.60757446289062" paint-order="fill stroke markers" d="M80 60 C80 128.33333333333331,156.66666666666666 265,195 265 "/><path fill="none" stroke="rgb(80,80,80)" stroke-miterlimit="10" stroke-width="4" stroke-dasharray="298.9403991699219,298.9403991699219" paint-order="fill stroke markers" d="M20 60 C20 135,136.66666666666666 285,195 285 "/><path fill="none" stroke="rgb(52,58,64)" stroke-miterlimit="10" stroke-width="2" stroke-dasharray="298.9403991699219,298.9403991699219" paint-order="fill stroke markers" d="M20 60 C20 135,136.66666666666666 285,195 285 "/><path fill="none" stroke="rgb(80,80,80)" stroke-miterlimit="10" stroke-width="4" stroke-dasharray="302.7970275878906,302.7970275878906" paint-order="fill stroke markers" d="M80 60 C80 150,156.66666666666666 330,195 330 "/><path fill="none" stroke="rgb(52,58,64)" stroke-miterlimit="10" stroke-width="2" stroke-dasharray="302.7970275878906,302.7970275878906" paint-order="fill stroke markers" d="M80 60 C80 150,156.66666666666666 330,195 330 "/><path fill="none" stroke="rgb(80,80,80)" stroke-miterlimit="10" stroke-width="4" stroke-dasharray="353.2113952636719,353.2113952636719" paint-order="fill stroke markers" d="M20 60 C20 156.66666666666669,136.66666666666666 350,195 350 "/><path fill="none" stroke="rgb(52,58,64)" stroke-miterlimit="10" stroke-width="2" stroke-dasharray="353.2113952636719,353.2113952636719" paint-order="fill stroke markers" d="M20 60 C20 156.66666666666669,136.66666666666666 350,195 350 "/><path fill="none" stroke="rgb(80,80,80)" stroke-miterlimit="10" stroke-width="4" stroke-dasharray="53,53" paint-order="fill stroke markers" d="M475 285 M471 285 L475 285 L475 240 L479 240 "/><path fill="none" stroke="rgb(52,58,64)" stroke-miterlimit="10" stroke-width="2" stroke-dasharray="53,53" paint-order="fill stroke markers" d="M475 285 M471 285 L475 285 L475 240 L479 240 "/><path fill="none" stroke="rgb(80,80,80)" stroke-miterlimit="10" stroke-width="4" stroke-dasharray="129.58396911621094,129.58396911621094" paint-order="fill stroke markers" d="M275 340 C315 340,355 295,395 295 "/><path fill="none" stroke="rgb(52,58,64)" stroke-miterlimit="10" stroke-width="2" stroke-dasharray="129.58396911621094,129.58396911621094" paint-order="fill stroke markers" d="M275 340 C315 340,355 295,395 295 "/><path fill="none" stroke="rgb(80,80,80)" stroke-miterlimit="10" stroke-width="4" stroke-dasharray="8,8" paint-order="fill stroke markers" d="M395 275 M391 275 L395 275 L395 275 L399 275 "/><path fill="none" stroke="rgb(52,58,64)" stroke-miterlimit="10" stroke-width="2" stroke-dasharray="8,8" paint-order="fill stroke markers" d="M395 275 M391 275 L395 275 L395 275 L399 275 "/><path fill="none" stroke="rgb(80,80,80)" stroke-miterlimit="10" stroke-width="4" stroke-dasharray="77.87020874023438,77.87020874023438" paint-order="fill stroke markers" d="M275 205 C300 205,290 265,315 265 "/><path fill="none" stroke="rgb(52,58,64)" stroke-miterlimit="10" stroke-width="2" stroke-dasharray="77.87020874023438,77.87020874023438" paint-order="fill stroke markers" d="M275 205 C300 205,290 265,315 265 "/><path fill="none" stroke="rgb(80,80,80)" stroke-miterlimit="10" stroke-width="4" stroke-dasharray="42.000614166259766,42.000614166259766" paint-order="fill stroke markers" d="M275 205 C300 205,290 195,315 195 "/><path fill="none" stroke="rgb(52,58,64)" stroke-miterlimit="10" stroke-width="2" stroke-dasharray="42.000614166259766,42.000614166259766" paint-order="fill stroke markers" d="M275 205 C300 205,290 195,315 195 "/><path fill="none" stroke="rgb(80,80,80)" stroke-miterlimit="10" stroke-width="4" stroke-dasharray="77.87024688720703,77.87024688720703" paint-order="fill stroke markers" d="M275 275 C300 275,290 215,315 215 "/><path fill="none" stroke="rgb(52,58,64)" stroke-miterlimit="10" stroke-width="2" stroke-dasharray="77.87024688720703,77.87024688720703" paint-order="fill stroke markers" d="M275 275 C300 275,290 215,315 215 "/><path fill="none" stroke="rgb(80,80,80)" stroke-miterlimit="10" stroke-width="4" stroke-dasharray="42.000614166259766,42.000614166259766" paint-order="fill stroke markers" d="M275 275 C300 275,290 285,315 285 "/><path fill="none" stroke="rgb(52,58,64)" stroke-miterlimit="10" stroke-width="2" stroke-dasharray="42.000614166259766,42.000614166259766" paint-order="fill stroke markers" d="M275 275 C300 275,290 285,315 285 "/><path fill="none" stroke="rgb(80,80,80)" stroke-miterlimit="10" stroke-width="4" stroke-dasharray="81.662841796875,81.662841796875" paint-order="fill stroke markers" d="M395 205 C421.6666666666667 205,448.3333333333333 220,475 220 "/><path fill="none" stroke="rgb(52,58,64)" stroke-miterlimit="10" stroke-width="2" stroke-dasharray="81.662841796875,81.662841796875" paint-order="fill stroke markers" d="M395 205 C421.6666666666667 205,448.3333333333333 220,475 220 "/><path fill="none" stroke="rgb(80,80,80)" stroke-miterlimit="10" stroke-width="4" stroke-dasharray="378.9210510253906,378.9210510253906" paint-order="fill stroke markers" d="M100 60 C100 85,350 40,475 40 "/><path fill="none" stroke="rgb(52,58,64)" stroke-miterlimit="10" stroke-width="2" stroke-dasharray="378.9210510253906,378.9210510253906" paint-order="fill stroke markers" d="M100 60 C100 85,350 40,475 40 "/><path fill="none" stroke="rgb(80,80,80)" stroke-miterlimit="10" stroke-width="4" stroke-dasharray="403,403" paint-order="fill stroke markers" d="M80 60 M80 56 L80 60 L475 60 L479 60 "/><path fill="none" stroke="rgb(52,58,64)" stroke-miterlimit="10" stroke-width="2" stroke-dasharray="403,403" paint-order="fill stroke markers" d="M80 60 M80 56 L80 60 L475 60 L479 60 "/><path fill="none" stroke="rgb(80,80,80)" stroke-miterlimit="10" stroke-width="4" stroke-dasharray="443.0708923339844,443.0708923339844" paint-order="fill stroke markers" d="M40 60 C40 85,330 120,475 120 "/><path fill="none" stroke="rgb(52,58,64)" stroke-miterlimit="10" stroke-width="2" stroke-dasharray="443.0708923339844,443.0708923339844" paint-order="fill stroke markers" d="M40 60 C40 85,330 120,475 120 "/><path fill="none" stroke="rgb(80,80,80)" stroke-miterlimit="10" stroke-width="4" stroke-dasharray="466.5862731933594,466.5862731933594" paint-order="fill stroke markers" d="M20 60 C20 86.66666666666667,323.33333333333337 140,475 140 "/><path fill="none" stroke="rgb(52,58,64)" stroke-miterlimit="10" stroke-width="2" stroke-dasharray="466.5862731933594,466.5862731933594" paint-order="fill stroke markers" d="M20 60 C20 86.66666666666667,323.33333333333337 140,475 140 "/></g><g class="components"><g class="Input"><path fill="rgb(255,255,255)" stroke="none" paint-order="fill stroke markers" d="M 110 30 L 110 50 L 70 50 L 70 30 Z"/><path fill="none" stroke="rgb(80,80,80)" stroke-miterlimit="10" stroke-width="4" paint-order="fill stroke markers" d="M 100 60 L 100 53"/><path fill="none" stroke="rgb(52,58,64)" stroke-miterlimit="10" stroke-width="2" stroke-dasharray="20,20" paint-order="fill stroke markers" d="M 100 60 L 100 53"/><path fill="none" stroke="rgb(132,138,144)" stroke-miterlimit="10" stroke-width="2" stroke-dasharray="20,20" paint-order="fill stroke markers" d="M 100 60 L 100 53"/><path fill="rgb(0,0,0)" stroke="none" paint-order="fill stroke markers" d="M 103 52 L 97 52 L 100 55 Z"/><path fill="none" stroke="rgb(0,0,0)" stroke-linecap="square" stroke-miterlimit="10" stroke-width="2" paint-order="fill stroke markers" d="M 103 52 L 97 52 L 100 55 Z"/><path fill="none" stroke="rgb(80,80,80)" stroke-miterlimit="10" stroke-width="4" paint-order="fill stroke markers" d="M 80 60 L 80 53"/><path fill="none" stroke="rgb(52,58,64)" stroke-miterlimit="10" stroke-width="2" stroke-dasharray="20,20" paint-order="fill stroke markers" d="M 80 60 L 80 53"/><path fill="none" stroke="rgb(132,138,144)" stroke-miterlimit="10" stroke-width="2" stroke-dasharray="20,20" paint-order="fill stroke markers" d="M 80 60 L 80 53"/><path fill="rgb(0,0,0)" stroke="none" paint-order="fill stroke markers" d="M 83 52 L 77 52 L 80 55 Z"/><path fill="none" stroke="rgb(0,0,0)" stroke-linecap="square" stroke-miterlimit="10" stroke-width="2" paint-order="fill stroke markers" d="M 83 52 L 77 52 L 80 55 Z"/><path fill="rgb(52,58,64)" stroke="none" paint-order="fill stroke markers" d="M 110 30 L 110 50 L 90 50 L 90 30 Z"/><path fill="none" stroke="rgb(0,0,0)" stroke-linecap="square" stroke-miterlimit="10" paint-order="fill stroke markers" d="M 110 30 L 110 50 L 90 50 L 90 30 Z"/><path fill="rgb(52,58,64)" stroke="none" paint-order="fill stroke markers" d="M 90 30 L 90 50 L 70 50 L 70 30 Z"/><path fill="none" stroke="rgb(0,0,0)" stroke-linecap="square" stroke-miterlimit="10" paint-order="fill stroke markers" d="M 90 30 L 90 50 L 70 50 L 70 30 Z"/><path fill="none" stroke="rgb(0,0,0)" stroke-linecap="square" stroke-miterlimit="10" stroke-width="3" paint-order="fill stroke markers" d="M 110 30 L 110 50 L 70 50 L 70 30 Z"/><text fill="rgb(0,0,0)" stroke="none" font-family="sans-serif" font-size="18px" font-style="italic" font-weight="normal" text-decoration="" x="90" y="25" text-anchor="middle" dominant-baseline="text-after-edge">A</text><text fill="rgb(255,255,255)" stroke="none" font-family="sans-serif" font-size="18px" font-style="normal" font-weight="normal" text-decoration="" x="100" y="40" text-anchor="middle" dominant-baseline="central">0</text><text fill="rgb(255,255,255)" stroke="none" font-family="sans-serif" font-size="18px" font-style="normal" font-weight="normal" text-decoration="" x="80" y="40" text-anchor="middle" dominant-baseline="central">0</text><path fill="rgb(52,58,64)" stroke="none" paint-order="fill stroke markers" d="M 104 60 A 4 4 0 1 1 103.99999800000016 59.99600000066666"/><path fill="none" stroke="rgb(80,80,80)" stroke-linecap="square" stroke-miterlimit="10" paint-order="fill stroke markers" d="M 104 60 A 4 4 0 1 1 103.99999800000016 59.99600000066666"/><path fill="rgb(52,58,64)" stroke="none" paint-order="fill stroke markers" d="M 84 60 A 4 4 0 1 1 83.99999800000016 59.99600000066666"/><path fill="none" stroke="rgb(80,80,80)" stroke-linecap="square" stroke-miterlimit="10" paint-order="fill stroke markers" d="M 84 60 A 4 4 0 1 1 83.99999800000016 59.99600000066666"/></g><g class="Display"><path fill="rgb(52,58,64)" stroke="none" paint-order="fill stroke markers" d="M 485 190 L 525 190 L 525 250 L 485 250 Z"/><path fill="none" stroke="rgb(80,80,80)" stroke-miterlimit="10" stroke-width="4" paint-order="fill stroke markers" d="M 475 200 L 485 200"/><path fill="none" stroke="rgb(52,58,64)" stroke-miterlimit="10" stroke-width="2" stroke-dasharray="20,20" paint-order="fill stroke markers" d="M 475 200 L 485 200"/><path fill="none" stroke="rgb(132,138,144)" stroke-miterlimit="10" stroke-width="2" stroke-dasharray="20,20" paint-order="fill stroke markers" d="M 475 200 L 485 200"/><path fill="none" stroke="rgb(80,80,80)" stroke-miterlimit="10" stroke-width="4" paint-order="fill stroke markers" d="M 475 220 L 485 220"/><path fill="none" stroke="rgb(52,58,64)" stroke-miterlimit="10" stroke-width="2" stroke-dasharray="20,20" paint-order="fill stroke markers" d="M 475 220 L 485 220"/><path fill="none" stroke="rgb(132,138,144)" stroke-miterlimit="10" stroke-width="2" stroke-dasharray="20,20" paint-order="fill stroke markers" d="M 475 220 L 485 220"/><path fill="none" stroke="rgb(80,80,80)" stroke-miterlimit="10" stroke-width="4" paint-order="fill stroke markers" d="M 475 240 L 485 240"/><path fill="none" stroke="rgb(52,58,64)" stroke-miterlimit="10" stroke-width="2" stroke-dasharray="20,20" paint-order="fill stroke markers" d="M 475 240 L 485 240"/><path fill="none" stroke="rgb(132,138,144)" stroke-miterlimit="10" stroke-width="2" stroke-dasharray="20,20" paint-order="fill stroke markers" d="M 475 240 L 485 240"/><path fill="none" stroke="rgb(0,0,0)" stroke-linecap="square" stroke-miterlimit="10" stroke-width="3" paint-order="fill stroke markers" d="M 485 190 L 525 190 L 525 250 L 485 250 Z"/><text fill="rgb(0,0,0)" stroke="none" font-family="sans-serif" font-size="18px" font-style="italic" font-weight="normal" text-decoration="" x="532" y="220" text-anchor="start" dominant-baseline="central">Somme</text><text fill="rgb(255,255,255)" stroke="none" font-family="sans-serif" font-size="10px" font-style="normal" font-weight="normal" text-decoration="" x="505" y="198" text-anchor="middle" dominant-baseline="central">000</text><text fill="rgb(255,255,255)" stroke="none" font-family="sans-serif" font-size="18px" font-style="normal" font-weight="bold" text-decoration="" x="505" y="220" text-anchor="middle" dominant-baseline="central">0</text><path fill="rgb(52,58,64)" stroke="none" paint-order="fill stroke markers" d="M 471 200 A 4 4 180 1 1 471.0000019999998 200.00399999933333"/><path fill="none" stroke="rgb(80,80,80)" stroke-linecap="square" stroke-miterlimit="10" paint-order="fill stroke markers" d="M 471 200 A 4 4 180 1 1 471.0000019999998 200.00399999933333"/><path fill="rgb(52,58,64)" stroke="none" paint-order="fill stroke markers" d="M 471 220 A 4 4 180 1 1 471.0000019999998 220.00399999933333"/><path fill="none" stroke="rgb(80,80,80)" stroke-linecap="square" stroke-miterlimit="10" paint-order="fill stroke markers" d="M 471 220 A 4 4 180 1 1 471.0000019999998 220.00399999933333"/><path fill="rgb(52,58,64)" stroke="none" paint-order="fill stroke markers" d="M 471 240 A 4 4 180 1 1 471.0000019999998 240.00399999933333"/><path fill="none" stroke="rgb(80,80,80)" stroke-linecap="square" stroke-miterlimit="10" paint-order="fill stroke markers" d="M 471 240 A 4 4 180 1 1 471.0000019999998 240.00399999933333"/></g><g class="Input"><path fill="rgb(255,255,255)" stroke="none" paint-order="fill stroke markers" d="M 50 30 L 50 50 L 10 50 L 10 30 Z"/><path fill="none" stroke="rgb(80,80,80)" stroke-miterlimit="10" stroke-width="4" paint-order="fill stroke markers" d="M 40 60 L 40 53"/><path fill="none" stroke="rgb(52,58,64)" stroke-miterlimit="10" stroke-width="2" stroke-dasharray="20,20" paint-order="fill stroke markers" d="M 40 60 L 40 53"/><path fill="none" stroke="rgb(132,138,144)" stroke-miterlimit="10" stroke-width="2" stroke-dasharray="20,20" paint-order="fill stroke markers" d="M 40 60 L 40 53"/><path fill="rgb(0,0,0)" stroke="none" paint-order="fill stroke markers" d="M 43 52 L 37 52 L 40 55 Z"/><path fill="none" stroke="rgb(0,0,0)" stroke-linecap="square" stroke-miterlimit="10" stroke-width="2" paint-order="fill stroke markers" d="M 43 52 L 37 52 L 40 55 Z"/><path fill="none" stroke="rgb(80,80,80)" stroke-miterlimit="10" stroke-width="4" paint-order="fill stroke markers" d="M 20 60 L 20 53"/><path fill="none" stroke="rgb(52,58,64)" stroke-miterlimit="10" stroke-width="2" stroke-dasharray="20,20" paint-order="fill stroke markers" d="M 20 60 L 20 53"/><path fill="none" stroke="rgb(132,138,144)" stroke-miterlimit="10" stroke-width="2" stroke-dasharray="20,20" paint-order="fill stroke markers" d="M 20 60 L 20 53"/><path fill="rgb(0,0,0)" stroke="none" paint-order="fill stroke markers" d="M 23 52 L 17 52 L 20 55 Z"/><path fill="none" stroke="rgb(0,0,0)" stroke-linecap="square" stroke-miterlimit="10" stroke-width="2" paint-order="fill stroke markers" d="M 23 52 L 17 52 L 20 55 Z"/><path fill="rgb(52,58,64)" stroke="none" paint-order="fill stroke markers" d="M 50 30 L 50 50 L 30 50 L 30 30 Z"/><path fill="none" stroke="rgb(0,0,0)" stroke-linecap="square" stroke-miterlimit="10" paint-order="fill stroke markers" d="M 50 30 L 50 50 L 30 50 L 30 30 Z"/><path fill="rgb(52,58,64)" stroke="none" paint-order="fill stroke markers" d="M 30 30 L 30 50 L 10 50 L 10 30 Z"/><path fill="none" stroke="rgb(0,0,0)" stroke-linecap="square" stroke-miterlimit="10" paint-order="fill stroke markers" d="M 30 30 L 30 50 L 10 50 L 10 30 Z"/><path fill="none" stroke="rgb(0,0,0)" stroke-linecap="square" stroke-miterlimit="10" stroke-width="3" paint-order="fill stroke markers" d="M 50 30 L 50 50 L 10 50 L 10 30 Z"/><text fill="rgb(0,0,0)" stroke="none" font-family="sans-serif" font-size="18px" font-style="italic" font-weight="normal" text-decoration="" x="30" y="25" text-anchor="middle" dominant-baseline="text-after-edge">B</text><text fill="rgb(255,255,255)" stroke="none" font-family="sans-serif" font-size="18px" font-style="normal" font-weight="normal" text-decoration="" x="40" y="40" text-anchor="middle" dominant-baseline="central">0</text><text fill="rgb(255,255,255)" stroke="none" font-family="sans-serif" font-size="18px" font-style="normal" font-weight="normal" text-decoration="" x="20" y="40" text-anchor="middle" dominant-baseline="central">0</text><path fill="rgb(52,58,64)" stroke="none" paint-order="fill stroke markers" d="M 44 60 A 4 4 0 1 1 43.99999800000017 59.99600000066666"/><path fill="none" stroke="rgb(80,80,80)" stroke-linecap="square" stroke-miterlimit="10" paint-order="fill stroke markers" d="M 44 60 A 4 4 0 1 1 43.99999800000017 59.99600000066666"/><path fill="rgb(52,58,64)" stroke="none" paint-order="fill stroke markers" d="M 24 60 A 4 4 0 1 1 23.99999800000017 59.99600000066666"/><path fill="none" stroke="rgb(80,80,80)" stroke-linecap="square" stroke-miterlimit="10" paint-order="fill stroke markers" d="M 24 60 A 4 4 0 1 1 23.99999800000017 59.99600000066666"/></g><g class="GateN"><path fill="none" stroke="rgb(80,80,80)" stroke-miterlimit="10" stroke-width="4" paint-order="fill stroke markers" d="M 195 130 L 214 130"/><path fill="none" stroke="rgb(52,58,64)" stroke-miterlimit="10" stroke-width="2" stroke-dasharray="20,20" paint-order="fill stroke markers" d="M 195 130 L 214 130"/><path fill="none" stroke="rgb(132,138,144)" stroke-miterlimit="10" stroke-width="2" stroke-dasharray="20,20" paint-order="fill stroke markers" d="M 195 130 L 214 130"/><path fill="none" stroke="rgb(80,80,80)" stroke-miterlimit="10" stroke-width="4" paint-order="fill stroke markers" d="M 195 150 L 214 150"/><path fill="none" stroke="rgb(52,58,64)" stroke-miterlimit="10" stroke-width="2" stroke-dasharray="20,20" paint-order="fill stroke markers" d="M 195 150 L 214 150"/><path fill="none" stroke="rgb(132,138,144)" stroke-miterlimit="10" stroke-width="2" stroke-dasharray="20,20" paint-order="fill stroke markers" d="M 195 150 L 214 150"/><path fill="none" stroke="rgb(80,80,80)" stroke-miterlimit="10" stroke-width="4" paint-order="fill stroke markers" d="M 275 140 L 254 140"/><path fill="none" stroke="rgb(52,58,64)" stroke-miterlimit="10" stroke-width="2" stroke-dasharray="20,20" paint-order="fill stroke markers" d="M 275 140 L 254 140"/><path fill="none" stroke="rgb(132,138,144)" stroke-miterlimit="10" stroke-width="2" stroke-dasharray="20,20" paint-order="fill stroke markers" d="M 275 140 L 254 140"/><path fill="rgb(255,255,255)" stroke="none" paint-order="fill stroke markers" d="M 215 120 L 220 120 C 245 120 250 132 255 140 C 250 148 245 160 220 160 L 215 160 Q 227 140 215 120 Z"/><path fill="none" stroke="rgb(0,0,0)" stroke-linecap="square" stroke-miterlimit="10" stroke-width="3" paint-order="fill stroke markers" d="M 215 120 L 220 120 C 245 120 250 132 255 140 C 250 148 245 160 220 160 L 215 160 Q 227 140 215 120 Z"/><path fill="none" stroke="rgb(0,0,0)" stroke-linecap="square" stroke-miterlimit="10" stroke-width="3" paint-order="fill stroke markers" d="M 209 160 Q 221 140 209 120"/><path fill="rgb(52,58,64)" stroke="none" paint-order="fill stroke markers" d="M 191 130 A 4 4 180 1 1 191.00000199999982 130.00399999933333"/><path fill="none" stroke="rgb(80,80,80)" stroke-linecap="square" stroke-miterlimit="10" paint-order="fill stroke markers" d="M 191 130 A 4 4 180 1 1 191.00000199999982 130.00399999933333"/><path fill="rgb(52,58,64)" stroke="none" paint-order="fill stroke markers" d="M 191 150 A 4 4 180 1 1 191.00000199999982 150.00399999933333"/><path fill="none" stroke="rgb(80,80,80)" stroke-linecap="square" stroke-miterlimit="10" paint-order="fill stroke markers" d="M 191 150 A 4 4 180 1 1 191.00000199999982 150.00399999933333"/><path fill="rgb(52,58,64)" stroke="none" paint-order="fill stroke markers" d="M 279 140 A 4 4 0 1 1 278.9999980000002 139.99600000066667"/><path fill="none" stroke="rgb(80,80,80)" stroke-linecap="square" stroke-miterlimit="10" paint-order="fill stroke markers" d="M 279 140 A 4 4 0 1 1 278.9999980000002 139.99600000066667"/></g><g class="GateN"><path fill="none" stroke="rgb(80,80,80)" stroke-miterlimit="10" stroke-width="4" paint-order="fill stroke markers" d="M 195 195 L 215 195"/><path fill="none" stroke="rgb(52,58,64)" stroke-miterlimit="10" stroke-width="2" stroke-dasharray="20,20" paint-order="fill stroke markers" d="M 195 195 L 215 195"/><path fill="none" stroke="rgb(132,138,144)" stroke-miterlimit="10" stroke-width="2" stroke-dasharray="20,20" paint-order="fill stroke markers" d="M 195 195 L 215 195"/><path fill="none" stroke="rgb(80,80,80)" stroke-miterlimit="10" stroke-width="4" paint-order="fill stroke markers" d="M 195 215 L 215 215"/><path fill="none" stroke="rgb(52,58,64)" stroke-miterlimit="10" stroke-width="2" stroke-dasharray="20,20" paint-order="fill stroke markers" d="M 195 215 L 215 215"/><path fill="none" stroke="rgb(132,138,144)" stroke-miterlimit="10" stroke-width="2" stroke-dasharray="20,20" paint-order="fill stroke markers" d="M 195 215 L 215 215"/><path fill="none" stroke="rgb(80,80,80)" stroke-miterlimit="10" stroke-width="4" paint-order="fill stroke markers" d="M 275 205 L 254 205"/><path fill="none" stroke="rgb(52,58,64)" stroke-miterlimit="10" stroke-width="2" stroke-dasharray="20,20" paint-order="fill stroke markers" d="M 275 205 L 254 205"/><path fill="none" stroke="rgb(132,138,144)" stroke-miterlimit="10" stroke-width="2" stroke-dasharray="20,20" paint-order="fill stroke markers" d="M 275 205 L 254 205"/><path fill="rgb(255,255,255)" stroke="none" paint-order="fill stroke markers" d="M 235 225 L 215 225 L 215 185 L 235 185 L 235 185 A 20 20 0 0 1 235 225 Z"/><path fill="none" stroke="rgb(0,0,0)" stroke-linecap="square" stroke-miterlimit="10" paint-order="fill stroke markers" d="M 235 225 L 215 225 L 215 185 L 235 185 L 235 185 A 20 20 0 0 1 235 225 Z"/><path fill="none" stroke="rgb(0,0,0)" stroke-linecap="square" stroke-miterlimit="10" stroke-width="3" paint-order="fill stroke markers" d="M 235 225 L 215 225 L 215 185 L 235 185 L 235 185 A 20 20 0 0 1 235 225 Z"/><path fill="rgb(52,58,64)" stroke="none" paint-order="fill stroke markers" d="M 191 195 A 4 4 180 1 1 191.00000199999982 195.00399999933333"/><path fill="none" stroke="rgb(80,80,80)" stroke-linecap="square" stroke-miterlimit="10" paint-order="fill stroke markers" d="M 191 195 A 4 4 180 1 1 191.00000199999982 195.00399999933333"/><path fill="rgb(52,58,64)" stroke="none" paint-order="fill stroke markers" d="M 191 215 A 4 4 180 1 1 191.00000199999982 215.00399999933333"/><path fill="none" stroke="rgb(80,80,80)" stroke-linecap="square" stroke-miterlimit="10" paint-order="fill stroke markers" d="M 191 215 A 4 4 180 1 1 191.00000199999982 215.00399999933333"/><path fill="rgb(52,58,64)" stroke="none" paint-order="fill stroke markers" d="M 279 205 A 4 4 0 1 1 278.9999980000002 204.99600000066667"/><path fill="none" stroke="rgb(80,80,80)" stroke-linecap="square" stroke-miterlimit="10" paint-order="fill stroke markers" d="M 279 205 A 4 4 0 1 1 278.9999980000002 204.99600000066667"/></g><g class="GateN"><path fill="none" stroke="rgb(80,80,80)" stroke-miterlimit="10" stroke-width="4" paint-order="fill stroke markers" d="M 195 265 L 214 265"/><path fill="none" stroke="rgb(52,58,64)" stroke-miterlimit="10" stroke-width="2" stroke-dasharray="20,20" paint-order="fill stroke markers" d="M 195 265 L 214 265"/><path fill="none" stroke="rgb(132,138,144)" stroke-miterlimit="10" stroke-width="2" stroke-dasharray="20,20" paint-order="fill stroke markers" d="M 195 265 L 214 265"/><path fill="none" stroke="rgb(80,80,80)" stroke-miterlimit="10" stroke-width="4" paint-order="fill stroke markers" d="M 195 285 L 214 285"/><path fill="none" stroke="rgb(52,58,64)" stroke-miterlimit="10" stroke-width="2" stroke-dasharray="20,20" paint-order="fill stroke markers" d="M 195 285 L 214 285"/><path fill="none" stroke="rgb(132,138,144)" stroke-miterlimit="10" stroke-width="2" stroke-dasharray="20,20" paint-order="fill stroke markers" d="M 195 285 L 214 285"/><path fill="none" stroke="rgb(80,80,80)" stroke-miterlimit="10" stroke-width="4" paint-order="fill stroke markers" d="M 275 275 L 254 275"/><path fill="none" stroke="rgb(52,58,64)" stroke-miterlimit="10" stroke-width="2" stroke-dasharray="20,20" paint-order="fill stroke markers" d="M 275 275 L 254 275"/><path fill="none" stroke="rgb(132,138,144)" stroke-miterlimit="10" stroke-width="2" stroke-dasharray="20,20" paint-order="fill stroke markers" d="M 275 275 L 254 275"/><path fill="rgb(255,255,255)" stroke="none" paint-order="fill stroke markers" d="M 215 255 L 220 255 C 245 255 250 267 255 275 C 250 283 245 295 220 295 L 215 295 Q 227 275 215 255 Z"/><path fill="none" stroke="rgb(0,0,0)" stroke-linecap="square" stroke-miterlimit="10" stroke-width="3" paint-order="fill stroke markers" d="M 215 255 L 220 255 C 245 255 250 267 255 275 C 250 283 245 295 220 295 L 215 295 Q 227 275 215 255 Z"/><path fill="none" stroke="rgb(0,0,0)" stroke-linecap="square" stroke-miterlimit="10" stroke-width="3" paint-order="fill stroke markers" d="M 209 295 Q 221 275 209 255"/><path fill="rgb(52,58,64)" stroke="none" paint-order="fill stroke markers" d="M 191 265 A 4 4 180 1 1 191.00000199999982 265.00399999933336"/><path fill="none" stroke="rgb(80,80,80)" stroke-linecap="square" stroke-miterlimit="10" paint-order="fill stroke markers" d="M 191 265 A 4 4 180 1 1 191.00000199999982 265.00399999933336"/><path fill="rgb(52,58,64)" stroke="none" paint-order="fill stroke markers" d="M 191 285 A 4 4 180 1 1 191.00000199999982 285.00399999933336"/><path fill="none" stroke="rgb(80,80,80)" stroke-linecap="square" stroke-miterlimit="10" paint-order="fill stroke markers" d="M 191 285 A 4 4 180 1 1 191.00000199999982 285.00399999933336"/><path fill="rgb(52,58,64)" stroke="none" paint-order="fill stroke markers" d="M 279 275 A 4 4 0 1 1 278.9999980000002 274.99600000066664"/><path fill="none" stroke="rgb(80,80,80)" stroke-linecap="square" stroke-miterlimit="10" paint-order="fill stroke markers" d="M 279 275 A 4 4 0 1 1 278.9999980000002 274.99600000066664"/></g><g class="GateN"><path fill="none" stroke="rgb(80,80,80)" stroke-miterlimit="10" stroke-width="4" paint-order="fill stroke markers" d="M 195 330 L 215 330"/><path fill="none" stroke="rgb(52,58,64)" stroke-miterlimit="10" stroke-width="2" stroke-dasharray="20,20" paint-order="fill stroke markers" d="M 195 330 L 215 330"/><path fill="none" stroke="rgb(132,138,144)" stroke-miterlimit="10" stroke-width="2" stroke-dasharray="20,20" paint-order="fill stroke markers" d="M 195 330 L 215 330"/><path fill="none" stroke="rgb(80,80,80)" stroke-miterlimit="10" stroke-width="4" paint-order="fill stroke markers" d="M 195 350 L 215 350"/><path fill="none" stroke="rgb(52,58,64)" stroke-miterlimit="10" stroke-width="2" stroke-dasharray="20,20" paint-order="fill stroke markers" d="M 195 350 L 215 350"/><path fill="none" stroke="rgb(132,138,144)" stroke-miterlimit="10" stroke-width="2" stroke-dasharray="20,20" paint-order="fill stroke markers" d="M 195 350 L 215 350"/><path fill="none" stroke="rgb(80,80,80)" stroke-miterlimit="10" stroke-width="4" paint-order="fill stroke markers" d="M 275 340 L 254 340"/><path fill="none" stroke="rgb(52,58,64)" stroke-miterlimit="10" stroke-width="2" stroke-dasharray="20,20" paint-order="fill stroke markers" d="M 275 340 L 254 340"/><path fill="none" stroke="rgb(132,138,144)" stroke-miterlimit="10" stroke-width="2" stroke-dasharray="20,20" paint-order="fill stroke markers" d="M 275 340 L 254 340"/><path fill="rgb(255,255,255)" stroke="none" paint-order="fill stroke markers" d="M 235 360 L 215 360 L 215 320 L 235 320 L 235 320 A 20 20 0 0 1 235 360 Z"/><path fill="none" stroke="rgb(0,0,0)" stroke-linecap="square" stroke-miterlimit="10" paint-order="fill stroke markers" d="M 235 360 L 215 360 L 215 320 L 235 320 L 235 320 A 20 20 0 0 1 235 360 Z"/><path fill="none" stroke="rgb(0,0,0)" stroke-linecap="square" stroke-miterlimit="10" stroke-width="3" paint-order="fill stroke markers" d="M 235 360 L 215 360 L 215 320 L 235 320 L 235 320 A 20 20 0 0 1 235 360 Z"/><path fill="rgb(52,58,64)" stroke="none" paint-order="fill stroke markers" d="M 191 330 A 4 4 180 1 1 191.00000199999982 330.00399999933336"/><path fill="none" stroke="rgb(80,80,80)" stroke-linecap="square" stroke-miterlimit="10" paint-order="fill stroke markers" d="M 191 330 A 4 4 180 1 1 191.00000199999982 330.00399999933336"/><path fill="rgb(52,58,64)" stroke="none" paint-order="fill stroke markers" d="M 191 350 A 4 4 180 1 1 191.00000199999982 350.00399999933336"/><path fill="none" stroke="rgb(80,80,80)" stroke-linecap="square" stroke-miterlimit="10" paint-order="fill stroke markers" d="M 191 350 A 4 4 180 1 1 191.00000199999982 350.00399999933336"/><path fill="rgb(52,58,64)" stroke="none" paint-order="fill stroke markers" d="M 279 340 A 4 4 0 1 1 278.9999980000002 339.99600000066664"/><path fill="none" stroke="rgb(80,80,80)" stroke-linecap="square" stroke-miterlimit="10" paint-order="fill stroke markers" d="M 279 340 A 4 4 0 1 1 278.9999980000002 339.99600000066664"/></g><g class="GateN"><path fill="none" stroke="rgb(80,80,80)" stroke-miterlimit="10" stroke-width="4" paint-order="fill stroke markers" d="M 395 275 L 420 275"/><path fill="none" stroke="rgb(52,58,64)" stroke-miterlimit="10" stroke-width="2" stroke-dasharray="20,20" paint-order="fill stroke markers" d="M 395 275 L 420 275"/><path fill="none" stroke="rgb(132,138,144)" stroke-miterlimit="10" stroke-width="2" stroke-dasharray="20,20" paint-order="fill stroke markers" d="M 395 275 L 420 275"/><path fill="none" stroke="rgb(80,80,80)" stroke-miterlimit="10" stroke-width="4" paint-order="fill stroke markers" d="M 395 295 L 420 295"/><path fill="none" stroke="rgb(52,58,64)" stroke-miterlimit="10" stroke-width="2" stroke-dasharray="20,20" paint-order="fill stroke markers" d="M 395 295 L 420 295"/><path fill="none" stroke="rgb(132,138,144)" stroke-miterlimit="10" stroke-width="2" stroke-dasharray="20,20" paint-order="fill stroke markers" d="M 395 295 L 420 295"/><path fill="none" stroke="rgb(80,80,80)" stroke-miterlimit="10" stroke-width="4" paint-order="fill stroke markers" d="M 475 285 L 454 285"/><path fill="none" stroke="rgb(52,58,64)" stroke-miterlimit="10" stroke-width="2" stroke-dasharray="20,20" paint-order="fill stroke markers" d="M 475 285 L 454 285"/><path fill="none" stroke="rgb(132,138,144)" stroke-miterlimit="10" stroke-width="2" stroke-dasharray="20,20" paint-order="fill stroke markers" d="M 475 285 L 454 285"/><path fill="rgb(255,255,255)" stroke="none" paint-order="fill stroke markers" d="M 415 265 L 420 265 C 445 265 450 277 455 285 C 450 293 445 305 420 305 L 415 305 Q 427 285 415 265 Z"/><path fill="none" stroke="rgb(0,0,0)" stroke-linecap="square" stroke-miterlimit="10" stroke-width="3" paint-order="fill stroke markers" d="M 415 265 L 420 265 C 445 265 450 277 455 285 C 450 293 445 305 420 305 L 415 305 Q 427 285 415 265 Z"/><path fill="rgb(52,58,64)" stroke="none" paint-order="fill stroke markers" d="M 391 275 A 4 4 180 1 1 391.0000019999998 275.00399999933336"/><path fill="none" stroke="rgb(80,80,80)" stroke-linecap="square" stroke-miterlimit="10" paint-order="fill stroke markers" d="M 391 275 A 4 4 180 1 1 391.0000019999998 275.00399999933336"/><path fill="rgb(52,58,64)" stroke="none" paint-order="fill stroke markers" d="M 391 295 A 4 4 180 1 1 391.0000019999998 295.00399999933336"/><path fill="none" stroke="rgb(80,80,80)" stroke-linecap="square" stroke-miterlimit="10" paint-order="fill stroke markers" d="M 391 295 A 4 4 180 1 1 391.0000019999998 295.00399999933336"/><path fill="rgb(52,58,64)" stroke="none" paint-order="fill stroke markers" d="M 479 285 A 4 4 0 1 1 478.9999980000002 284.99600000066664"/><path fill="none" stroke="rgb(80,80,80)" stroke-linecap="square" stroke-miterlimit="10" paint-order="fill stroke markers" d="M 479 285 A 4 4 0 1 1 478.9999980000002 284.99600000066664"/></g><g class="GateN"><path fill="none" stroke="rgb(80,80,80)" stroke-miterlimit="10" stroke-width="4" paint-order="fill stroke markers" d="M 315 265 L 335 265"/><path fill="none" stroke="rgb(52,58,64)" stroke-miterlimit="10" stroke-width="2" stroke-dasharray="20,20" paint-order="fill stroke markers" d="M 315 265 L 335 265"/><path fill="none" stroke="rgb(132,138,144)" stroke-miterlimit="10" stroke-width="2" stroke-dasharray="20,20" paint-order="fill stroke markers" d="M 315 265 L 335 265"/><path fill="none" stroke="rgb(80,80,80)" stroke-miterlimit="10" stroke-width="4" paint-order="fill stroke markers" d="M 315 285 L 335 285"/><path fill="none" stroke="rgb(52,58,64)" stroke-miterlimit="10" stroke-width="2" stroke-dasharray="20,20" paint-order="fill stroke markers" d="M 315 285 L 335 285"/><path fill="none" stroke="rgb(132,138,144)" stroke-miterlimit="10" stroke-width="2" stroke-dasharray="20,20" paint-order="fill stroke markers" d="M 315 285 L 335 285"/><path fill="none" stroke="rgb(80,80,80)" stroke-miterlimit="10" stroke-width="4" paint-order="fill stroke markers" d="M 395 275 L 374 275"/><path fill="none" stroke="rgb(52,58,64)" stroke-miterlimit="10" stroke-width="2" stroke-dasharray="20,20" paint-order="fill stroke markers" d="M 395 275 L 374 275"/><path fill="none" stroke="rgb(132,138,144)" stroke-miterlimit="10" stroke-width="2" stroke-dasharray="20,20" paint-order="fill stroke markers" d="M 395 275 L 374 275"/><path fill="rgb(255,255,255)" stroke="none" paint-order="fill stroke markers" d="M 355 295 L 335 295 L 335 255 L 355 255 L 355 255 A 20 20 0 0 1 355 295 Z"/><path fill="none" stroke="rgb(0,0,0)" stroke-linecap="square" stroke-miterlimit="10" paint-order="fill stroke markers" d="M 355 295 L 335 295 L 335 255 L 355 255 L 355 255 A 20 20 0 0 1 355 295 Z"/><path fill="none" stroke="rgb(0,0,0)" stroke-linecap="square" stroke-miterlimit="10" stroke-width="3" paint-order="fill stroke markers" d="M 355 295 L 335 295 L 335 255 L 355 255 L 355 255 A 20 20 0 0 1 355 295 Z"/><path fill="rgb(52,58,64)" stroke="none" paint-order="fill stroke markers" d="M 311 265 A 4 4 180 1 1 311.0000019999998 265.00399999933336"/><path fill="none" stroke="rgb(80,80,80)" stroke-linecap="square" stroke-miterlimit="10" paint-order="fill stroke markers" d="M 311 265 A 4 4 180 1 1 311.0000019999998 265.00399999933336"/><path fill="rgb(52,58,64)" stroke="none" paint-order="fill stroke markers" d="M 311 285 A 4 4 180 1 1 311.0000019999998 285.00399999933336"/><path fill="none" stroke="rgb(80,80,80)" stroke-linecap="square" stroke-miterlimit="10" paint-order="fill stroke markers" d="M 311 285 A 4 4 180 1 1 311.0000019999998 285.00399999933336"/><path fill="rgb(52,58,64)" stroke="none" paint-order="fill stroke markers" d="M 399 275 A 4 4 0 1 1 398.9999980000002 274.99600000066664"/><path fill="none" stroke="rgb(80,80,80)" stroke-linecap="square" stroke-miterlimit="10" paint-order="fill stroke markers" d="M 399 275 A 4 4 0 1 1 398.9999980000002 274.99600000066664"/></g><g class="GateN"><path fill="none" stroke="rgb(80,80,80)" stroke-miterlimit="10" stroke-width="4" paint-order="fill stroke markers" d="M 315 195 L 334 195"/><path fill="none" stroke="rgb(52,58,64)" stroke-miterlimit="10" stroke-width="2" stroke-dasharray="20,20" paint-order="fill stroke markers" d="M 315 195 L 334 195"/><path fill="none" stroke="rgb(132,138,144)" stroke-miterlimit="10" stroke-width="2" stroke-dasharray="20,20" paint-order="fill stroke markers" d="M 315 195 L 334 195"/><path fill="none" stroke="rgb(80,80,80)" stroke-miterlimit="10" stroke-width="4" paint-order="fill stroke markers" d="M 315 215 L 334 215"/><path fill="none" stroke="rgb(52,58,64)" stroke-miterlimit="10" stroke-width="2" stroke-dasharray="20,20" paint-order="fill stroke markers" d="M 315 215 L 334 215"/><path fill="none" stroke="rgb(132,138,144)" stroke-miterlimit="10" stroke-width="2" stroke-dasharray="20,20" paint-order="fill stroke markers" d="M 315 215 L 334 215"/><path fill="none" stroke="rgb(80,80,80)" stroke-miterlimit="10" stroke-width="4" paint-order="fill stroke markers" d="M 395 205 L 374 205"/><path fill="none" stroke="rgb(52,58,64)" stroke-miterlimit="10" stroke-width="2" stroke-dasharray="20,20" paint-order="fill stroke markers" d="M 395 205 L 374 205"/><path fill="none" stroke="rgb(132,138,144)" stroke-miterlimit="10" stroke-width="2" stroke-dasharray="20,20" paint-order="fill stroke markers" d="M 395 205 L 374 205"/><path fill="rgb(255,255,255)" stroke="none" paint-order="fill stroke markers" d="M 335 185 L 340 185 C 365 185 370 197 375 205 C 370 213 365 225 340 225 L 335 225 Q 347 205 335 185 Z"/><path fill="none" stroke="rgb(0,0,0)" stroke-linecap="square" stroke-miterlimit="10" stroke-width="3" paint-order="fill stroke markers" d="M 335 185 L 340 185 C 365 185 370 197 375 205 C 370 213 365 225 340 225 L 335 225 Q 347 205 335 185 Z"/><path fill="none" stroke="rgb(0,0,0)" stroke-linecap="square" stroke-miterlimit="10" stroke-width="3" paint-order="fill stroke markers" d="M 329 225 Q 341 205 329 185"/><path fill="rgb(52,58,64)" stroke="none" paint-order="fill stroke markers" d="M 311 195 A 4 4 180 1 1 311.0000019999998 195.00399999933333"/><path fill="none" stroke="rgb(80,80,80)" stroke-linecap="square" stroke-miterlimit="10" paint-order="fill stroke markers" d="M 311 195 A 4 4 180 1 1 311.0000019999998 195.00399999933333"/><path fill="rgb(52,58,64)" stroke="none" paint-order="fill stroke markers" d="M 311 215 A 4 4 180 1 1 311.0000019999998 215.00399999933333"/><path fill="none" stroke="rgb(80,80,80)" stroke-linecap="square" stroke-miterlimit="10" paint-order="fill stroke markers" d="M 311 215 A 4 4 180 1 1 311.0000019999998 215.00399999933333"/><path fill="rgb(52,58,64)" stroke="none" paint-order="fill stroke markers" d="M 399 205 A 4 4 0 1 1 398.9999980000002 204.99600000066667"/><path fill="none" stroke="rgb(80,80,80)" stroke-linecap="square" stroke-miterlimit="10" paint-order="fill stroke markers" d="M 399 205 A 4 4 0 1 1 398.9999980000002 204.99600000066667"/></g><g class="Display"><path fill="rgb(52,58,64)" stroke="none" paint-order="fill stroke markers" d="M 485 30 L 525 30 L 525 90 L 485 90 Z"/><path fill="none" stroke="rgb(80,80,80)" stroke-miterlimit="10" stroke-width="4" paint-order="fill stroke markers" d="M 475 40 L 485 40"/><path fill="none" stroke="rgb(52,58,64)" stroke-miterlimit="10" stroke-width="2" stroke-dasharray="20,20" paint-order="fill stroke markers" d="M 475 40 L 485 40"/><path fill="none" stroke="rgb(132,138,144)" stroke-miterlimit="10" stroke-width="2" stroke-dasharray="20,20" paint-order="fill stroke markers" d="M 475 40 L 485 40"/><path fill="none" stroke="rgb(80,80,80)" stroke-miterlimit="10" stroke-width="4" paint-order="fill stroke markers" d="M 475 60 L 485 60"/><path fill="none" stroke="rgb(52,58,64)" stroke-miterlimit="10" stroke-width="2" stroke-dasharray="20,20" paint-order="fill stroke markers" d="M 475 60 L 485 60"/><path fill="none" stroke="rgb(132,138,144)" stroke-miterlimit="10" stroke-width="2" stroke-dasharray="20,20" paint-order="fill stroke markers" d="M 475 60 L 485 60"/><path fill="none" stroke="rgb(80,80,80)" stroke-miterlimit="10" stroke-width="4" paint-order="fill stroke markers" d="M 475 80 L 485 80"/><path fill="none" stroke="rgb(52,58,64)" stroke-miterlimit="10" stroke-width="2" stroke-dasharray="20,20" paint-order="fill stroke markers" d="M 475 80 L 485 80"/><path fill="none" stroke="rgb(132,138,144)" stroke-miterlimit="10" stroke-width="2" stroke-dasharray="20,20" paint-order="fill stroke markers" d="M 475 80 L 485 80"/><path fill="none" stroke="rgb(0,0,0)" stroke-linecap="square" stroke-miterlimit="10" stroke-width="3" paint-order="fill stroke markers" d="M 485 30 L 525 30 L 525 90 L 485 90 Z"/><text fill="rgb(0,0,0)" stroke="none" font-family="sans-serif" font-size="18px" font-style="italic" font-weight="normal" text-decoration="" x="532" y="60" text-anchor="start" dominant-baseline="central">A</text><text fill="rgb(255,255,255)" stroke="none" font-family="sans-serif" font-size="10px" font-style="normal" font-weight="normal" text-decoration="" x="505" y="38" text-anchor="middle" dominant-baseline="central">000</text><text fill="rgb(255,255,255)" stroke="none" font-family="sans-serif" font-size="18px" font-style="normal" font-weight="bold" text-decoration="" x="505" y="60" text-anchor="middle" dominant-baseline="central">0</text><path fill="rgb(52,58,64)" stroke="none" paint-order="fill stroke markers" d="M 471 40 A 4 4 180 1 1 471.0000019999998 40.00399999933334"/><path fill="none" stroke="rgb(80,80,80)" stroke-linecap="square" stroke-miterlimit="10" paint-order="fill stroke markers" d="M 471 40 A 4 4 180 1 1 471.0000019999998 40.00399999933334"/><path fill="rgb(52,58,64)" stroke="none" paint-order="fill stroke markers" d="M 471 60 A 4 4 180 1 1 471.0000019999998 60.00399999933334"/><path fill="none" stroke="rgb(80,80,80)" stroke-linecap="square" stroke-miterlimit="10" paint-order="fill stroke markers" d="M 471 60 A 4 4 180 1 1 471.0000019999998 60.00399999933334"/><path fill="rgb(255,255,255)" stroke="none" paint-order="fill stroke markers" d="M 471 80 A 4 4 180 1 1 471.0000019999998 80.00399999933333"/><path fill="none" stroke="rgb(80,80,80)" stroke-linecap="square" stroke-miterlimit="10" paint-order="fill stroke markers" d="M 471 80 A 4 4 180 1 1 471.0000019999998 80.00399999933333"/></g><g class="Display"><path fill="rgb(52,58,64)" stroke="none" paint-order="fill stroke markers" d="M 485 110 L 525 110 L 525 170 L 485 170 Z"/><path fill="none" stroke="rgb(80,80,80)" stroke-miterlimit="10" stroke-width="4" paint-order="fill stroke markers" d="M 475 120 L 485 120"/><path fill="none" stroke="rgb(52,58,64)" stroke-miterlimit="10" stroke-width="2" stroke-dasharray="20,20" paint-order="fill stroke markers" d="M 475 120 L 485 120"/><path fill="none" stroke="rgb(132,138,144)" stroke-miterlimit="10" stroke-width="2" stroke-dasharray="20,20" paint-order="fill stroke markers" d="M 475 120 L 485 120"/><path fill="none" stroke="rgb(80,80,80)" stroke-miterlimit="10" stroke-width="4" paint-order="fill stroke markers" d="M 475 140 L 485 140"/><path fill="none" stroke="rgb(52,58,64)" stroke-miterlimit="10" stroke-width="2" stroke-dasharray="20,20" paint-order="fill stroke markers" d="M 475 140 L 485 140"/><path fill="none" stroke="rgb(132,138,144)" stroke-miterlimit="10" stroke-width="2" stroke-dasharray="20,20" paint-order="fill stroke markers" d="M 475 140 L 485 140"/><path fill="none" stroke="rgb(80,80,80)" stroke-miterlimit="10" stroke-width="4" paint-order="fill stroke markers" d="M 475 160 L 485 160"/><path fill="none" stroke="rgb(52,58,64)" stroke-miterlimit="10" stroke-width="2" stroke-dasharray="20,20" paint-order="fill stroke markers" d="M 475 160 L 485 160"/><path fill="none" stroke="rgb(132,138,144)" stroke-miterlimit="10" stroke-width="2" stroke-dasharray="20,20" paint-order="fill stroke markers" d="M 475 160 L 485 160"/><path fill="none" stroke="rgb(0,0,0)" stroke-linecap="square" stroke-miterlimit="10" stroke-width="3" paint-order="fill stroke markers" d="M 485 110 L 525 110 L 525 170 L 485 170 Z"/><text fill="rgb(0,0,0)" stroke="none" font-family="sans-serif" font-size="18px" font-style="italic" font-weight="normal" text-decoration="" x="532" y="140" text-anchor="start" dominant-baseline="central">B</text><text fill="rgb(255,255,255)" stroke="none" font-family="sans-serif" font-size="10px" font-style="normal" font-weight="normal" text-decoration="" x="505" y="118" text-anchor="middle" dominant-baseline="central">000</text><text fill="rgb(255,255,255)" stroke="none" font-family="sans-serif" font-size="18px" font-style="normal" font-weight="bold" text-decoration="" x="505" y="140" text-anchor="middle" dominant-baseline="central">0</text><path fill="rgb(52,58,64)" stroke="none" paint-order="fill stroke markers" d="M 471 120 A 4 4 180 1 1 471.0000019999998 120.00399999933333"/><path fill="none" stroke="rgb(80,80,80)" stroke-linecap="square" stroke-miterlimit="10" paint-order="fill stroke markers" d="M 471 120 A 4 4 180 1 1 471.0000019999998 120.00399999933333"/><path fill="rgb(52,58,64)" stroke="none" paint-order="fill stroke markers" d="M 471 140 A 4 4 180 1 1 471.0000019999998 140.00399999933333"/><path fill="none" stroke="rgb(80,80,80)" stroke-linecap="square" stroke-miterlimit="10" paint-order="fill stroke markers" d="M 471 140 A 4 4 180 1 1 471.0000019999998 140.00399999933333"/><path fill="rgb(255,255,255)" stroke="none" paint-order="fill stroke markers" d="M 471 160 A 4 4 180 1 1 471.0000019999998 160.00399999933333"/><path fill="none" stroke="rgb(80,80,80)" stroke-linecap="square" stroke-miterlimit="10" paint-order="fill stroke markers" d="M 471 160 A 4 4 180 1 1 471.0000019999998 160.00399999933333"/></g></g><g class="overlays"/></g></svg>