<svg version="1.1" xmlns="http://www.w3.org/2000/svg" xmlns:xlink="http://www.w3.org/1999/xlink" width="425" height="143"><metadata>{ // JSON5
  v: 6,
  opts: {hideWireColors: true, hideInputColors: true, hideOutputColors: true},
  components: {
    in0: {type: 'in', pos: [55, 35], id: 8, name: 'A'},
    in1: {type: 'in', pos: [55, 75], id: 9, name: 'B'},
    in2: {type: 'in', pos: [55, 115], id: 10, name: 'C'},
    out0: {type: 'out', pos: [370, 35], id: 11, name: 'X'},
    out1: {type: 'out', pos: [370, 75], id: 12, name: 'Y'},
    not0: {type: 'not', pos: [155, 35], in: 13, out: 14},
    xor0: {type: 'xor', pos: [155, 95], in: [15, 16], out: 17},
    and0: {type: 'and', pos: [280, 75], in: [18, 19], out: 20},
    out2: {type: 'out', pos: [370, 115], id: 21, name: 'Z'},
  },
  wires: [[8, 13], [9, 15], [10, 16], [17, 21], [14, 11], [14, 18], [17, 19], [20, 12]]
}</metadata><g/><g><g class="background"/><g class="wires"><path fill="none" stroke="rgb(80,80,80)" stroke-miterlimit="10" stroke-width="4" stroke-dasharray="38,38" paint-order="fill stroke markers" d="M85 35 M81 35 L85 35 L115 35 L119 35 "/><path fill="none" stroke="rgb(152,158,164)" stroke-miterlimit="10" stroke-width="2" stroke-dasharray="38,38" paint-order="fill stroke markers" d="M85 35 M81 35 L85 35 L115 35 L119 35 "/><path fill="none" stroke="rgb(80,80,80)" stroke-miterlimit="10" stroke-width="4" stroke-dasharray="33.54071044921875,33.54071044921875" paint-order="fill stroke markers" d="M85 75 C110 75,90 85,115 85 "/><path fill="none" stroke="rgb(152,158,164)" stroke-miterlimit="10" stroke-width="2" stroke-dasharray="33.54071044921875,33.54071044921875" paint-order="fill stroke markers" d="M85 75 C110 75,90 85,115 85 "/><path fill="none" stroke="rgb(80,80,80)" stroke-miterlimit="10" stroke-width="4" stroke-dasharray="33.54071044921875,33.54071044921875" paint-order="fill stroke markers" d="M85 115 C110 115,90 105,115 105 "/><path fill="none" stroke="rgb(152,158,164)" stroke-miterlimit="10" stroke-width="2" stroke-dasharray="33.54071044921875,33.54071044921875" paint-order="fill stroke markers" d="M85 115 C110 115,90 105,115 105 "/><path fill="none" stroke="rgb(80,80,80)" stroke-miterlimit="10" stroke-width="4" stroke-dasharray="146.6418914794922,146.6418914794922" paint-order="fill stroke markers" d="M195 95 C243.33333333333334 95,291.6666666666667 115,340 115 "/><path fill="none" stroke="rgb(152,158,164)" stroke-miterlimit="10" stroke-width="2" stroke-dasharray="146.6418914794922,146.6418914794922" paint-order="fill stroke markers" d="M195 95 C243.33333333333334 95,291.6666666666667 115,340 115 "/><path fill="none" stroke="rgb(80,80,80)" stroke-miterlimit="10" stroke-width="4" stroke-dasharray="153,153" paint-order="fill stroke markers" d="M195 35 M191 35 L195 35 L340 35 L344 35 "/><path fill="none" stroke="rgb(152,158,164)" stroke-miterlimit="10" stroke-width="2" stroke-dasharray="153,153" paint-order="fill stroke markers" d="M195 35 M191 35 L195 35 L340 35 L344 35 "/><path fill="none" stroke="rgb(80,80,80)" stroke-miterlimit="10" stroke-width="4" stroke-dasharray="57.029945373535156,57.029945373535156" paint-order="fill stroke markers" d="M195 35 C220 35,215 65,240 65 "/><path fill="none" stroke="rgb(152,158,164)" stroke-miterlimit="10" stroke-width="2" stroke-dasharray="57.029945373535156,57.029945373535156" paint-order="fill stroke markers" d="M195 35 C220 35,215 65,240 65 "/><path fill="none" stroke="rgb(80,80,80)" stroke-miterlimit="10" stroke-width="4" stroke-dasharray="46.63779067993164,46.63779067993164" paint-order="fill stroke markers" d="M195 95 C220 95,215 85,240 85 "/><path fill="none" stroke="rgb(152,158,164)" stroke-miterlimit="10" stroke-width="2" stroke-dasharray="46.63779067993164,46.63779067993164" paint-order="fill stroke markers" d="M195 95 C220 95,215 85,240 85 "/><path fill="none" stroke="rgb(80,80,80)" stroke-miterlimit="10" stroke-width="4" stroke-dasharray="28,28" paint-order="fill stroke markers" d="M320 75 M316 75 L320 75 L340 75 L344 75 "/><path fill="none" stroke="rgb(152,158,164)" stroke-miterlimit="10" stroke-width="2" stroke-dasharray="28,28" paint-order="fill stroke markers" d="M320 75 M316 75 L320 75 L340 75 L344 75 "/></g><g class="components"><g class="Input"><path fill="none" stroke="rgb(80,80,80)" stroke-miterlimit="10" stroke-width="4" paint-order="fill stroke markers" d="M 85 35 L 63 35"/><path fill="none" stroke="rgb(152,158,164)" stroke-miterlimit="10" stroke-width="2" stroke-dasharray="20,20" paint-order="fill stroke markers" d="M 85 35 L 63 35"/><path fill="none" stroke="rgb(202,208,214)" stroke-miterlimit="10" stroke-width="2" stroke-dasharray="20,20" paint-order="fill stroke markers" d="M 85 35 L 63 35"/><path fill="rgb(0,0,0)" stroke="none" paint-order="fill stroke markers" d="M 67 41.75 L 73 35 L 67 28.25 Z"/><path fill="none" stroke="rgb(0,0,0)" stroke-linecap="square" stroke-miterlimit="10" stroke-width="3" paint-order="fill stroke markers" d="M 67 41.75 L 73 35 L 67 28.25 Z"/><path fill="rgb(152,158,164)" stroke="none" paint-order="fill stroke markers" d="M 68 35 A 13 13 0 1 1 67.99999350000054 34.98700000216666"/><path fill="none" stroke="rgb(0,0,0)" stroke-linecap="square" stroke-miterlimit="10" stroke-width="4" paint-order="fill stroke markers" d="M 68 35 A 13 13 0 1 1 67.99999350000054 34.98700000216666"/><text fill="rgb(0,0,0)" stroke="none" font-family="sans-serif" font-size="18px" font-style="italic" font-weight="normal" text-decoration="" x="33" y="35" text-anchor="end" dominant-baseline="central">A</text><text fill="rgb(255,255,255)" stroke="none" font-family="sans-serif" font-size="18px" font-style="normal" font-weight="bold" text-decoration="" x="55" y="35" text-anchor="middle" dominant-baseline="central">?</text><path fill="rgb(152,158,164)" stroke="none" paint-order="fill stroke markers" d="M 89 35 A 4 4 0 1 1 88.99999800000016 34.99600000066666"/><path fill="none" stroke="rgb(80,80,80)" stroke-linecap="square" stroke-miterlimit="10" paint-order="fill stroke markers" d="M 89 35 A 4 4 0 1 1 88.99999800000016 34.99600000066666"/></g><g class="Input"><path fill="none" stroke="rgb(80,80,80)" stroke-miterlimit="10" stroke-width="4" paint-order="fill stroke markers" d="M 85 75 L 63 75"/><path fill="none" stroke="rgb(152,158,164)" stroke-miterlimit="10" stroke-width="2" stroke-dasharray="20,20" paint-order="fill stroke markers" d="M 85 75 L 63 75"/><path fill="none" stroke="rgb(202,208,214)" stroke-miterlimit="10" stroke-width="2" stroke-dasharray="20,20" paint-order="fill stroke markers" d="M 85 75 L 63 75"/><path fill="rgb(0,0,0)" stroke="none" paint-order="fill stroke markers" d="M 67 81.75 L 73 75 L 67 68.25 Z"/><path fill="none" stroke="rgb(0,0,0)" stroke-linecap="square" stroke-miterlimit="10" stroke-width="3" paint-order="fill stroke markers" d="M 67 81.75 L 73 75 L 67 68.25 Z"/><path fill="rgb(152,158,164)" stroke="none" paint-order="fill stroke markers" d="M 68 75 A 13 13 0 1 1 67.99999350000054 74.98700000216665"/><path fill="none" stroke="rgb(0,0,0)" stroke-linecap="square" stroke-miterlimit="10" stroke-width="4" paint-order="fill stroke markers" d="M 68 75 A 13 13 0 1 1 67.99999350000054 74.98700000216665"/><text fill="rgb(0,0,0)" stroke="none" font-family="sans-serif" font-size="18px" font-style="italic" font-weight="normal" text-decoration="" x="33" y="75" text-anchor="end" dominant-baseline="central">B</text><text fill="rgb(255,255,255)" stroke="none" font-family="sans-serif" font-size="18px" font-style="normal" font-weight="bold" text-decoration="" x="55" y="75" text-anchor="middle" dominant-baseline="central">?</text><path fill="rgb(152,158,164)" stroke="none" paint-order="fill stroke markers" d="M 89 75 A 4 4 0 1 1 88.99999800000016 74.99600000066667"/><path fill="none" stroke="rgb(80,80,80)" stroke-linecap="square" stroke-miterlimit="10" paint-order="fill stroke markers" d="M 89 75 A 4 4 0 1 1 88.99999800000016 74.99600000066667"/></g><g class="Input"><path fill="none" stroke="rgb(80,80,80)" stroke-miterlimit="10" stroke-width="4" paint-order="fill stroke markers" d="M 85 115 L 63 115"/><path fill="none" stroke="rgb(152,158,164)" stroke-miterlimit="10" stroke-width="2" stroke-dasharray="20,20" paint-order="fill stroke markers" d="M 85 115 L 63 115"/><path fill="none" stroke="rgb(202,208,214)" stroke-miterlimit="10" stroke-width="2" stroke-dasharray="20,20" paint-order="fill stroke markers" d="M 85 115 L 63 115"/><path fill="rgb(0,0,0)" stroke="none" paint-order="fill stroke markers" d="M 67 121.75 L 73 115 L 67 108.25 Z"/><path fill="none" stroke="rgb(0,0,0)" stroke-linecap="square" stroke-miterlimit="10" stroke-width="3" paint-order="fill stroke markers" d="M 67 121.75 L 73 115 L 67 108.25 Z"/><path fill="rgb(152,158,164)" stroke="none" paint-order="fill stroke markers" d="M 68 115 A 13 13 0 1 1 67.99999350000054 114.98700000216665"/><path fill="none" stroke="rgb(0,0,0)" stroke-linecap="square" stroke-miterlimit="10" stroke-width="4" paint-order="fill stroke markers" d="M 68 115 A 13 13 0 1 1 67.99999350000054 114.98700000216665"/><text fill="rgb(0,0,0)" stroke="none" font-family="sans-serif" font-size="18px" font-style="italic" font-weight="normal" text-decoration="" x="33" y="115" text-anchor="end" dominant-baseline="central">C</text><text fill="rgb(255,255,255)" stroke="none" font-family="sans-serif" font-size="18px" font-style="normal" font-weight="bold" text-decoration="" x="55" y="115" text-anchor="middle" dominant-baseline="central">?</text><path fill="rgb(152,158,164)" stroke="none" paint-order="fill stroke markers" d="M 89 115 A 4 4 0 1 1 88.99999800000016 114.99600000066667"/><path fill="none" stroke="rgb(80,80,80)" stroke-linecap="square" stroke-miterlimit="10" paint-order="fill stroke markers" d="M 89 115 A 4 4 0 1 1 88.99999800000016 114.99600000066667"/></g><g class="Output"><path fill="none" stroke="rgb(80,80,80)" stroke-miterlimit="10" stroke-width="4" paint-order="fill stroke markers" d="M 340 35 L 370 35"/><path fill="none" stroke="rgb(152,158,164)" stroke-miterlimit="10" stroke-width="2" stroke-dasharray="20,20" paint-order="fill stroke markers" d="M 340 35 L 370 35"/><path fill="none" stroke="rgb(202,208,214)" stroke-miterlimit="10" stroke-width="2" stroke-dasharray="20,20" paint-order="fill stroke markers" d="M 340 35 L 370 35"/><path fill="rgb(0,0,0)" stroke="none" paint-order="fill stroke markers" d="M 352 30 L 352 40 L 356 35 Z"/><path fill="none" stroke="rgb(0,0,0)" stroke-linecap="square" stroke-miterlimit="10" stroke-width="2" paint-order="fill stroke markers" d="M 352 30 L 352 40 L 356 35 Z"/><path fill="rgb(152,158,164)" stroke="none" paint-order="fill stroke markers" d="M 383 35 A 13 13 0 1 1 382.9999935000005 34.98700000216666"/><path fill="none" stroke="rgb(0,0,0)" stroke-linecap="square" stroke-miterlimit="10" stroke-width="4" paint-order="fill stroke markers" d="M 383 35 A 13 13 0 1 1 382.9999935000005 34.98700000216666"/><text fill="rgb(0,0,0)" stroke="none" font-family="sans-serif" font-size="18px" font-style="italic" font-weight="normal" text-decoration="" x="390" y="35" text-anchor="start" dominant-baseline="central">X</text><text fill="rgb(255,255,255)" stroke="none" font-family="sans-serif" font-size="18px" font-style="normal" font-weight="bold" text-decoration="" x="370" y="35" text-anchor="middle" dominant-baseline="central">?</text><path fill="rgb(152,158,164)" stroke="none" paint-order="fill stroke markers" d="M 336 35 A 4 4 180 1 1 336.0000019999998 35.00399999933334"/><path fill="none" stroke="rgb(80,80,80)" stroke-linecap="square" stroke-miterlimit="10" paint-order="fill stroke markers" d="M 336 35 A 4 4 180 1 1 336.0000019999998 35.00399999933334"/></g><g class="Output"><path fill="none" stroke="rgb(80,80,80)" stroke-miterlimit="10" stroke-width="4" paint-order="fill stroke markers" d="M 340 75 L 370 75"/><path fill="none" stroke="rgb(152,158,164)" stroke-miterlimit="10" stroke-width="2" stroke-dasharray="20,20" paint-order="fill stroke markers" d="M 340 75 L 370 75"/><path fill="none" stroke="rgb(202,208,214)" stroke-miterlimit="10" stroke-width="2" stroke-dasharray="20,20" paint-order="fill stroke markers" d="M 340 75 L 370 75"/><path fill="rgb(0,0,0)" stroke="none" paint-order="fill stroke markers" d="M 352 70 L 352 80 L 356 75 Z"/><path fill="none" stroke="rgb(0,0,0)" stroke-linecap="square" stroke-miterlimit="10" stroke-width="2" paint-order="fill stroke markers" d="M 352 70 L 352 80 L 356 75 Z"/><path fill="rgb(152,158,164)" stroke="none" paint-order="fill stroke markers" d="M 383 75 A 13 13 0 1 1 382.9999935000005 74.98700000216665"/><path fill="none" stroke="rgb(0,0,0)" stroke-linecap="square" stroke-miterlimit="10" stroke-width="4" paint-order="fill stroke markers" d="M 383 75 A 13 13 0 1 1 382.9999935000005 74.98700000216665"/><text fill="rgb(0,0,0)" stroke="none" font-family="sans-serif" font-size="18px" font-style="italic" font-weight="normal" text-decoration="" x="390" y="75" text-anchor="start" dominant-baseline="central">Y</text><text fill="rgb(255,255,255)" stroke="none" font-family="sans-serif" font-size="18px" font-style="normal" font-weight="bold" text-decoration="" x="370" y="75" text-anchor="middle" dominant-baseline="central">?</text><path fill="rgb(152,158,164)" stroke="none" paint-order="fill stroke markers" d="M 336 75 A 4 4 180 1 1 336.0000019999998 75.00399999933333"/><path fill="none" stroke="rgb(80,80,80)" stroke-linecap="square" stroke-miterlimit="10" paint-order="fill stroke markers" d="M 336 75 A 4 4 180 1 1 336.0000019999998 75.00399999933333"/></g><g class="Gate1"><path fill="none" stroke="rgb(80,80,80)" stroke-miterlimit="10" stroke-width="4" paint-order="fill stroke markers" d="M 115 35 L 135 35"/><path fill="none" stroke="rgb(152,158,164)" stroke-miterlimit="10" stroke-width="2" stroke-dasharray="20,20" paint-order="fill stroke markers" d="M 115 35 L 135 35"/><path fill="none" stroke="rgb(202,208,214)" stroke-miterlimit="10" stroke-width="2" stroke-dasharray="20,20" paint-order="fill stroke markers" d="M 115 35 L 135 35"/><path fill="none" stroke="rgb(80,80,80)" stroke-miterlimit="10" stroke-width="4" paint-order="fill stroke markers" d="M 195 35 L 174 35"/><path fill="none" stroke="rgb(152,158,164)" stroke-miterlimit="10" stroke-width="2" stroke-dasharray="20,20" paint-order="fill stroke markers" d="M 195 35 L 174 35"/><path fill="none" stroke="rgb(202,208,214)" stroke-miterlimit="10" stroke-width="2" stroke-dasharray="20,20" paint-order="fill stroke markers" d="M 195 35 L 174 35"/><path fill="rgb(255,255,255)" stroke="none" paint-order="fill stroke markers" d="M 135 15 L 175 35 L 135 55 Z"/><path fill="none" stroke="rgb(0,0,0)" stroke-linecap="square" stroke-miterlimit="10" stroke-width="3" paint-order="fill stroke markers" d="M 135 15 L 175 35 L 135 55 Z"/><path fill="rgb(255,255,255)" stroke="none" paint-order="fill stroke markers" d="M 184 35 A 4 4 0 1 1 183.99999800000018 34.99600000066666"/><path fill="none" stroke="rgb(0,0,0)" stroke-linecap="square" stroke-miterlimit="10" stroke-width="3" paint-order="fill stroke markers" d="M 184 35 A 4 4 0 1 1 183.99999800000018 34.99600000066666"/><path fill="rgb(152,158,164)" stroke="none" paint-order="fill stroke markers" d="M 111 35 A 4 4 180 1 1 111.00000199999984 35.00399999933334"/><path fill="none" stroke="rgb(80,80,80)" stroke-linecap="square" stroke-miterlimit="10" paint-order="fill stroke markers" d="M 111 35 A 4 4 180 1 1 111.00000199999984 35.00399999933334"/><path fill="rgb(152,158,164)" stroke="none" paint-order="fill stroke markers" d="M 199 35 A 4 4 0 1 1 198.99999800000018 34.99600000066666"/><path fill="none" stroke="rgb(80,80,80)" stroke-linecap="square" stroke-miterlimit="10" paint-order="fill stroke markers" d="M 199 35 A 4 4 0 1 1 198.99999800000018 34.99600000066666"/></g><g class="GateN"><path fill="none" stroke="rgb(80,80,80)" stroke-miterlimit="10" stroke-width="4" paint-order="fill stroke markers" d="M 115 85 L 134 85"/><path fill="none" stroke="rgb(152,158,164)" stroke-miterlimit="10" stroke-width="2" stroke-dasharray="20,20" paint-order="fill stroke markers" d="M 115 85 L 134 85"/><path fill="none" stroke="rgb(202,208,214)" stroke-miterlimit="10" stroke-width="2" stroke-dasharray="20,20" paint-order="fill stroke markers" d="M 115 85 L 134 85"/><path fill="none" stroke="rgb(80,80,80)" stroke-miterlimit="10" stroke-width="4" paint-order="fill stroke markers" d="M 115 105 L 134 105"/><path fill="none" stroke="rgb(152,158,164)" stroke-miterlimit="10" stroke-width="2" stroke-dasharray="20,20" paint-order="fill stroke markers" d="M 115 105 L 134 105"/><path fill="none" stroke="rgb(202,208,214)" stroke-miterlimit="10" stroke-width="2" stroke-dasharray="20,20" paint-order="fill stroke markers" d="M 115 105 L 134 105"/><path fill="none" stroke="rgb(80,80,80)" stroke-miterlimit="10" stroke-width="4" paint-order="fill stroke markers" d="M 195 95 L 174 95"/><path fill="none" stroke="rgb(152,158,164)" stroke-miterlimit="10" stroke-width="2" stroke-dasharray="20,20" paint-order="fill stroke markers" d="M 195 95 L 174 95"/><path fill="none" stroke="rgb(202,208,214)" stroke-miterlimit="10" stroke-width="2" stroke-dasharray="20,20" paint-order="fill stroke markers" d="M 195 95 L 174 95"/><path fill="rgb(255,255,255)" stroke="none" paint-order="fill stroke markers" d="M 135 75 L 140 75 C 165 75 170 87 175 95 C 170 103 165 115 140 115 L 135 115 Q 147 95 135 75 Z"/><path fill="none" stroke="rgb(0,0,0)" stroke-linecap="square" stroke-miterlimit="10" stroke-width="3" paint-order="fill stroke markers" d="M 135 75 L 140 75 C 165 75 170 87 175 95 C 170 103 165 115 140 115 L 135 115 Q 147 95 135 75 Z"/><path fill="none" stroke="rgb(0,0,0)" stroke-linecap="square" stroke-miterlimit="10" stroke-width="3" paint-order="fill stroke markers" d="M 129 115 Q 141 95 129 75"/><path fill="rgb(152,158,164)" stroke="none" paint-order="fill stroke markers" d="M 111 85 A 4 4 180 1 1 111.00000199999984 85.00399999933333"/><path fill="none" stroke="rgb(80,80,80)" stroke-linecap="square" stroke-miterlimit="10" paint-order="fill stroke markers" d="M 111 85 A 4 4 180 1 1 111.00000199999984 85.00399999933333"/><path fill="rgb(152,158,164)" stroke="none" paint-order="fill stroke markers" d="M 111 105 A 4 4 180 1 1 111.00000199999984 105.00399999933333"/><path fill="none" stroke="rgb(80,80,80)" stroke-linecap="square" stroke-miterlimit="10" paint-order="fill stroke markers" d="M 111 105 A 4 4 180 1 1 111.00000199999984 105.00399999933333"/><path fill="rgb(152,158,164)" stroke="none" paint-order="fill stroke markers" d="M 199 95 A 4 4 0 1 1 198.99999800000018 94.99600000066667"/><path fill="none" stroke="rgb(80,80,80)" stroke-linecap="square" stroke-miterlimit="10" paint-order="fill stroke markers" d="M 199 95 A 4 4 0 1 1 198.99999800000018 94.99600000066667"/></g><g class="GateN"><path fill="none" stroke="rgb(80,80,80)" stroke-miterlimit="10" stroke-width="4" paint-order="fill stroke markers" d="M 240 65 L 260 65"/><path fill="none" stroke="rgb(152,158,164)" stroke-miterlimit="10" stroke-width="2" stroke-dasharray="20,20" paint-order="fill stroke markers" d="M 240 65 L 260 65"/><path fill="none" stroke="rgb(202,208,214)" stroke-miterlimit="10" stroke-width="2" stroke-dasharray="20,20" paint-order="fill stroke markers" d="M 240 65 L 260 65"/><path fill="none" stroke="rgb(80,80,80)" stroke-miterlimit="10" stroke-width="4" paint-order="fill stroke markers" d="M 240 85 L 260 85"/><path fill="none" stroke="rgb(152,158,164)" stroke-miterlimit="10" stroke-width="2" stroke-dasharray="20,20" paint-order="fill stroke markers" d="M 240 85 L 260 85"/><path fill="none" stroke="rgb(202,208,214)" stroke-miterlimit="10" stroke-width="2" stroke-dasharray="20,20" paint-order="fill stroke markers" d="M 240 85 L 260 85"/><path fill="none" stroke="rgb(80,80,80)" stroke-miterlimit="10" stroke-width="4" paint-order="fill stroke markers" d="M 320 75 L 299 75"/><path fill="none" stroke="rgb(152,158,164)" stroke-miterlimit="10" stroke-width="2" stroke-dasharray="20,20" paint-order="fill stroke markers" d="M 320 75 L 299 75"/><path fill="none" stroke="rgb(202,208,214)" stroke-miterlimit="10" stroke-width="2" stroke-dasharray="20,20" paint-order="fill stroke markers" d="M 320 75 L 299 75"/><path fill="rgb(255,255,255)" stroke="none" paint-order="fill stroke markers" d="M 280 95 L 260 95 L 260 55 L 280 55 L 280 55 A 20 20 0 0 1 280 95 Z"/><path fill="none" stroke="rgb(0,0,0)" stroke-linecap="square" stroke-miterlimit="10" paint-order="fill stroke markers" d="M 280 95 L 260 95 L 260 55 L 280 55 L 280 55 A 20 20 0 0 1 280 95 Z"/><path fill="none" stroke="rgb(0,0,0)" stroke-linecap="square" stroke-miterlimit="10" stroke-width="3" paint-order="fill stroke markers" d="M 280 95 L 260 95 L 260 55 L 280 55 L 280 55 A 20 20 0 0 1 280 95 Z"/><path fill="rgb(152,158,164)" stroke="none" paint-order="fill stroke markers" d="M 236 65 A 4 4 180 1 1 236.00000199999982 65.00399999933333"/><path fill="none" stroke="rgb(80,80,80)" stroke-linecap="square" stroke-miterlimit="10" paint-order="fill stroke markers" d="M 236 65 A 4 4 180 1 1 236.00000199999982 65.00399999933333"/><path fill="rgb(152,158,164)" stroke="none" paint-order="fill stroke markers" d="M 236 85 A 4 4 180 1 1 236.00000199999982 85.00399999933333"/><path fill="none" stroke="rgb(80,80,80)" stroke-linecap="square" stroke-miterlimit="10" paint-order="fill stroke markers" d="M 236 85 A 4 4 180 1 1 236.00000199999982 85.00399999933333"/><path fill="rgb(152,158,164)" stroke="none" paint-order="fill stroke markers" d="M 324 75 A 4 4 0 1 1 323.9999980000002 74.99600000066667"/><path fill="none" stroke="rgb(80,80,80)" stroke-linecap="square" stroke-miterlimit="10" paint-order="fill stroke markers" d="M 324 75 A 4 4 0 1 1 323.9999980000002 74.99600000066667"/></g><g class="Output"><path fill="none" stroke="rgb(80,80,80)" stroke-miterlimit="10" stroke-width="4" paint-order="fill stroke markers" d="M 340 115 L 370 115"/><path fill="none" stroke="rgb(152,158,164)" stroke-miterlimit="10" stroke-width="2" stroke-dasharray="20,20" paint-order="fill stroke markers" d="M 340 115 L 370 115"/><path fill="none" stroke="rgb(202,208,214)" stroke-miterlimit="10" stroke-width="2" stroke-dasharray="20,20" paint-order="fill stroke markers" d="M 340 115 L 370 115"/><path fill="rgb(0,0,0)" stroke="none" paint-order="fill stroke markers" d="M 352 110 L 352 120 L 356 115 Z"/><path fill="none" stroke="rgb(0,0,0)" stroke-linecap="square" stroke-miterlimit="10" stroke-width="2" paint-order="fill stroke markers" d="M 352 110 L 352 120 L 356 115 Z"/><path fill="rgb(152,158,164)" stroke="none" paint-order="fill stroke markers" d="M 383 115 A 13 13 0 1 1 382.9999935000005 114.98700000216665"/><path fill="none" stroke="rgb(0,0,0)" stroke-linecap="square" stroke-miterlimit="10" stroke-width="4" paint-order="fill stroke markers" d="M 383 115 A 13 13 0 1 1 382.9999935000005 114.98700000216665"/><text fill="rgb(0,0,0)" stroke="none" font-family="sans-serif" font-size="18px" font-style="italic" font-weight="normal" text-decoration="" x="390" y="115" text-anchor="start" dominant-baseline="central">Z</text><text fill="rgb(255,255,255)" stroke="none" font-family="sans-serif" font-size="18px" font-style="normal" font-weight="bold" text-decoration="" x="370" y="115" text-anchor="middle" dominant-baseline="central">?</text><path fill="rgb(152,158,164)" stroke="none" paint-order="fill stroke markers" d="M 336 115 A 4 4 180 1 1 336.0000019999998 115.00399999933333"/><path fill="none" stroke="rgb(80,80,80)" stroke-linecap="square" stroke-miterlimit="10" paint-order="fill stroke markers" d="M 336 115 A 4 4 180 1 1 336.0000019999998 115.00399999933333"/></g></g><g class="overlays"/></g></svg>