<svg version="1.1" xmlns="http://www.w3.org/2000/svg" xmlns:xlink="http://www.w3.org/1999/xlink" width="400" height="157"><metadata>{ // JSON5
  v: 6,
  opts: {hideWireColors: true, hideInputColors: true, hideOutputColors: true},
  components: {
    and0: {type: 'and', pos: [160, 55], in: [0, 1], out: 2},
    not0: {type: 'not', pos: [160, 115], in: 3, out: 4},
    or0: {type: 'or', pos: [275, 85], in: [5, 6], out: 7},
    in0: {type: 'in', pos: [55, 35], id: 8, name: 'A'},
    in1: {type: 'in', pos: [55, 75], id: 9, name: 'B'},
    in2: {type: 'in', pos: [55, 115], id: 10, name: 'C'},
    out0: {type: 'out', pos: [345, 50], id: 11, name: 'X'},
    out1: {type: 'out', pos: [345, 85], id: 12, name: 'Y'},
  },
  wires: [[2, 5], [4, 6], [8, 0], [9, 1], [10, 3], [2, 11], [7, 12]]
}</metadata><g/><g><g class="background"/><g class="wires"><path fill="none" stroke="rgb(80,80,80)" stroke-miterlimit="10" stroke-width="4" stroke-dasharray="43.389076232910156,43.389076232910156" paint-order="fill stroke markers" d="M200 55 C225 55,210 75,235 75 "/><path fill="none" stroke="rgb(152,158,164)" stroke-miterlimit="10" stroke-width="2" stroke-dasharray="43.389076232910156,43.389076232910156" paint-order="fill stroke markers" d="M200 55 C225 55,210 75,235 75 "/><path fill="none" stroke="rgb(80,80,80)" stroke-miterlimit="10" stroke-width="4" stroke-dasharray="43.38908386230469,43.38908386230469" paint-order="fill stroke markers" d="M200 115 C225 115,210 95,235 95 "/><path fill="none" stroke="rgb(152,158,164)" stroke-miterlimit="10" stroke-width="2" stroke-dasharray="43.38908386230469,43.38908386230469" paint-order="fill stroke markers" d="M200 115 C225 115,210 95,235 95 "/><path fill="none" stroke="rgb(80,80,80)" stroke-miterlimit="10" stroke-width="4" stroke-dasharray="37.56828689575195,37.56828689575195" paint-order="fill stroke markers" d="M85 35 C110 35,95 45,120 45 "/><path fill="none" stroke="rgb(152,158,164)" stroke-miterlimit="10" stroke-width="2" stroke-dasharray="37.56828689575195,37.56828689575195" paint-order="fill stroke markers" d="M85 35 C110 35,95 45,120 45 "/><path fill="none" stroke="rgb(80,80,80)" stroke-miterlimit="10" stroke-width="4" stroke-dasharray="37.56828308105469,37.56828308105469" paint-order="fill stroke markers" d="M85 75 C110 75,95 65,120 65 "/><path fill="none" stroke="rgb(152,158,164)" stroke-miterlimit="10" stroke-width="2" stroke-dasharray="37.56828308105469,37.56828308105469" paint-order="fill stroke markers" d="M85 75 C110 75,95 65,120 65 "/><path fill="none" stroke="rgb(80,80,80)" stroke-miterlimit="10" stroke-width="4" stroke-dasharray="43,43" paint-order="fill stroke markers" d="M85 115 M81 115 L85 115 L120 115 L124 115 "/><path fill="none" stroke="rgb(152,158,164)" stroke-miterlimit="10" stroke-width="2" stroke-dasharray="43,43" paint-order="fill stroke markers" d="M85 115 M81 115 L85 115 L120 115 L124 115 "/><path fill="none" stroke="rgb(80,80,80)" stroke-miterlimit="10" stroke-width="4" stroke-dasharray="115.13031005859375,115.13031005859375" paint-order="fill stroke markers" d="M200 55 C238.33333333333334 55,276.6666666666667 50,315 50 "/><path fill="none" stroke="rgb(152,158,164)" stroke-miterlimit="10" stroke-width="2" stroke-dasharray="115.13031005859375,115.13031005859375" paint-order="fill stroke markers" d="M200 55 C238.33333333333334 55,276.6666666666667 50,315 50 "/><path fill="none" stroke="rgb(80,80,80)" stroke-miterlimit="10" stroke-width="4" stroke-dasharray="8,8" paint-order="fill stroke markers" d="M315 85 M311 85 L315 85 L315 85 L319 85 "/><path fill="none" stroke="rgb(152,158,164)" stroke-miterlimit="10" stroke-width="2" stroke-dasharray="8,8" paint-order="fill stroke markers" d="M315 85 M311 85 L315 85 L315 85 L319 85 "/></g><g class="components"><g class="GateN"><path fill="none" stroke="rgb(80,80,80)" stroke-miterlimit="10" stroke-width="4" paint-order="fill stroke markers" d="M 120 45 L 140 45"/><path fill="none" stroke="rgb(152,158,164)" stroke-miterlimit="10" stroke-width="2" stroke-dasharray="20,20" paint-order="fill stroke markers" d="M 120 45 L 140 45"/><path fill="none" stroke="rgb(202,208,214)" stroke-miterlimit="10" stroke-width="2" stroke-dasharray="20,20" paint-order="fill stroke markers" d="M 120 45 L 140 45"/><path fill="none" stroke="rgb(80,80,80)" stroke-miterlimit="10" stroke-width="4" paint-order="fill stroke markers" d="M 120 65 L 140 65"/><path fill="none" stroke="rgb(152,158,164)" stroke-miterlimit="10" stroke-width="2" stroke-dasharray="20,20" paint-order="fill stroke markers" d="M 120 65 L 140 65"/><path fill="none" stroke="rgb(202,208,214)" stroke-miterlimit="10" stroke-width="2" stroke-dasharray="20,20" paint-order="fill stroke markers" d="M 120 65 L 140 65"/><path fill="none" stroke="rgb(80,80,80)" stroke-miterlimit="10" stroke-width="4" paint-order="fill stroke markers" d="M 200 55 L 179 55"/><path fill="none" stroke="rgb(152,158,164)" stroke-miterlimit="10" stroke-width="2" stroke-dasharray="20,20" paint-order="fill stroke markers" d="M 200 55 L 179 55"/><path fill="none" stroke="rgb(202,208,214)" stroke-miterlimit="10" stroke-width="2" stroke-dasharray="20,20" paint-order="fill stroke markers" d="M 200 55 L 179 55"/><path fill="rgb(255,255,255)" stroke="none" paint-order="fill stroke markers" d="M 160 75 L 140 75 L 140 35 L 160 35 L 160 35 A 20 20 0 0 1 160 75 Z"/><path fill="none" stroke="rgb(0,0,0)" stroke-linecap="square" stroke-miterlimit="10" paint-order="fill stroke markers" d="M 160 75 L 140 75 L 140 35 L 160 35 L 160 35 A 20 20 0 0 1 160 75 Z"/><path fill="none" stroke="rgb(0,0,0)" stroke-linecap="square" stroke-miterlimit="10" stroke-width="3" paint-order="fill stroke markers" d="M 160 75 L 140 75 L 140 35 L 160 35 L 160 35 A 20 20 0 0 1 160 75 Z"/><path fill="rgb(152,158,164)" stroke="none" paint-order="fill stroke markers" d="M 116 45 A 4 4 180 1 1 116.00000199999984 45.00399999933334"/><path fill="none" stroke="rgb(80,80,80)" stroke-linecap="square" stroke-miterlimit="10" paint-order="fill stroke markers" d="M 116 45 A 4 4 180 1 1 116.00000199999984 45.00399999933334"/><path fill="rgb(152,158,164)" stroke="none" paint-order="fill stroke markers" d="M 116 65 A 4 4 180 1 1 116.00000199999984 65.00399999933333"/><path fill="none" stroke="rgb(80,80,80)" stroke-linecap="square" stroke-miterlimit="10" paint-order="fill stroke markers" d="M 116 65 A 4 4 180 1 1 116.00000199999984 65.00399999933333"/><path fill="rgb(152,158,164)" stroke="none" paint-order="fill stroke markers" d="M 204 55 A 4 4 0 1 1 203.99999800000018 54.99600000066666"/><path fill="none" stroke="rgb(80,80,80)" stroke-linecap="square" stroke-miterlimit="10" paint-order="fill stroke markers" d="M 204 55 A 4 4 0 1 1 203.99999800000018 54.99600000066666"/></g><g class="Gate1"><path fill="none" stroke="rgb(80,80,80)" stroke-miterlimit="10" stroke-width="4" paint-order="fill stroke markers" d="M 120 115 L 140 115"/><path fill="none" stroke="rgb(152,158,164)" stroke-miterlimit="10" stroke-width="2" stroke-dasharray="20,20" paint-order="fill stroke markers" d="M 120 115 L 140 115"/><path fill="none" stroke="rgb(202,208,214)" stroke-miterlimit="10" stroke-width="2" stroke-dasharray="20,20" paint-order="fill stroke markers" d="M 120 115 L 140 115"/><path fill="none" stroke="rgb(80,80,80)" stroke-miterlimit="10" stroke-width="4" paint-order="fill stroke markers" d="M 200 115 L 179 115"/><path fill="none" stroke="rgb(152,158,164)" stroke-miterlimit="10" stroke-width="2" stroke-dasharray="20,20" paint-order="fill stroke markers" d="M 200 115 L 179 115"/><path fill="none" stroke="rgb(202,208,214)" stroke-miterlimit="10" stroke-width="2" stroke-dasharray="20,20" paint-order="fill stroke markers" d="M 200 115 L 179 115"/><path fill="rgb(255,255,255)" stroke="none" paint-order="fill stroke markers" d="M 140 95 L 180 115 L 140 135 Z"/><path fill="none" stroke="rgb(0,0,0)" stroke-linecap="square" stroke-miterlimit="10" stroke-width="3" paint-order="fill stroke markers" d="M 140 95 L 180 115 L 140 135 Z"/><path fill="rgb(255,255,255)" stroke="none" paint-order="fill stroke markers" d="M 189 115 A 4 4 0 1 1 188.99999800000018 114.99600000066667"/><path fill="none" stroke="rgb(0,0,0)" stroke-linecap="square" stroke-miterlimit="10" stroke-width="3" paint-order="fill stroke markers" d="M 189 115 A 4 4 0 1 1 188.99999800000018 114.99600000066667"/><path fill="rgb(152,158,164)" stroke="none" paint-order="fill stroke markers" d="M 116 115 A 4 4 180 1 1 116.00000199999984 115.00399999933333"/><path fill="none" stroke="rgb(80,80,80)" stroke-linecap="square" stroke-miterlimit="10" paint-order="fill stroke markers" d="M 116 115 A 4 4 180 1 1 116.00000199999984 115.00399999933333"/><path fill="rgb(152,158,164)" stroke="none" paint-order="fill stroke markers" d="M 204 115 A 4 4 0 1 1 203.99999800000018 114.99600000066667"/><path fill="none" stroke="rgb(80,80,80)" stroke-linecap="square" stroke-miterlimit="10" paint-order="fill stroke markers" d="M 204 115 A 4 4 0 1 1 203.99999800000018 114.99600000066667"/></g><g class="GateN"><path fill="none" stroke="rgb(80,80,80)" stroke-miterlimit="10" stroke-width="4" paint-order="fill stroke markers" d="M 235 75 L 260 75"/><path fill="none" stroke="rgb(152,158,164)" stroke-miterlimit="10" stroke-width="2" stroke-dasharray="20,20" paint-order="fill stroke markers" d="M 235 75 L 260 75"/><path fill="none" stroke="rgb(202,208,214)" stroke-miterlimit="10" stroke-width="2" stroke-dasharray="20,20" paint-order="fill stroke markers" d="M 235 75 L 260 75"/><path fill="none" stroke="rgb(80,80,80)" stroke-miterlimit="10" stroke-width="4" paint-order="fill stroke markers" d="M 235 95 L 260 95"/><path fill="none" stroke="rgb(152,158,164)" stroke-miterlimit="10" stroke-width="2" stroke-dasharray="20,20" paint-order="fill stroke markers" d="M 235 95 L 260 95"/><path fill="none" stroke="rgb(202,208,214)" stroke-miterlimit="10" stroke-width="2" stroke-dasharray="20,20" paint-order="fill stroke markers" d="M 235 95 L 260 95"/><path fill="none" stroke="rgb(80,80,80)" stroke-miterlimit="10" stroke-width="4" paint-order="fill stroke markers" d="M 315 85 L 294 85"/><path fill="none" stroke="rgb(152,158,164)" stroke-miterlimit="10" stroke-width="2" stroke-dasharray="20,20" paint-order="fill stroke markers" d="M 315 85 L 294 85"/><path fill="none" stroke="rgb(202,208,214)" stroke-miterlimit="10" stroke-width="2" stroke-dasharray="20,20" paint-order="fill stroke markers" d="M 315 85 L 294 85"/><path fill="rgb(255,255,255)" stroke="none" paint-order="fill stroke markers" d="M 255 65 L 260 65 C 285 65 290 77 295 85 C 290 93 285 105 260 105 L 255 105 Q 267 85 255 65 Z"/><path fill="none" stroke="rgb(0,0,0)" stroke-linecap="square" stroke-miterlimit="10" stroke-width="3" paint-order="fill stroke markers" d="M 255 65 L 260 65 C 285 65 290 77 295 85 C 290 93 285 105 260 105 L 255 105 Q 267 85 255 65 Z"/><path fill="rgb(152,158,164)" stroke="none" paint-order="fill stroke markers" d="M 231 75 A 4 4 180 1 1 231.00000199999982 75.00399999933333"/><path fill="none" stroke="rgb(80,80,80)" stroke-linecap="square" stroke-miterlimit="10" paint-order="fill stroke markers" d="M 231 75 A 4 4 180 1 1 231.00000199999982 75.00399999933333"/><path fill="rgb(152,158,164)" stroke="none" paint-order="fill stroke markers" d="M 231 95 A 4 4 180 1 1 231.00000199999982 95.00399999933333"/><path fill="none" stroke="rgb(80,80,80)" stroke-linecap="square" stroke-miterlimit="10" paint-order="fill stroke markers" d="M 231 95 A 4 4 180 1 1 231.00000199999982 95.00399999933333"/><path fill="rgb(152,158,164)" stroke="none" paint-order="fill stroke markers" d="M 319 85 A 4 4 0 1 1 318.9999980000002 84.99600000066667"/><path fill="none" stroke="rgb(80,80,80)" stroke-linecap="square" stroke-miterlimit="10" paint-order="fill stroke markers" d="M 319 85 A 4 4 0 1 1 318.9999980000002 84.99600000066667"/></g><g class="Input"><path fill="none" stroke="rgb(80,80,80)" stroke-miterlimit="10" stroke-width="4" paint-order="fill stroke markers" d="M 85 35 L 63 35"/><path fill="none" stroke="rgb(152,158,164)" stroke-miterlimit="10" stroke-width="2" stroke-dasharray="20,20" paint-order="fill stroke markers" d="M 85 35 L 63 35"/><path fill="none" stroke="rgb(202,208,214)" stroke-miterlimit="10" stroke-width="2" stroke-dasharray="20,20" paint-order="fill stroke markers" d="M 85 35 L 63 35"/><path fill="rgb(0,0,0)" stroke="none" paint-order="fill stroke markers" d="M 67 41.75 L 73 35 L 67 28.25 Z"/><path fill="none" stroke="rgb(0,0,0)" stroke-linecap="square" stroke-miterlimit="10" stroke-width="3" paint-order="fill stroke markers" d="M 67 41.75 L 73 35 L 67 28.25 Z"/><path fill="rgb(152,158,164)" stroke="none" paint-order="fill stroke markers" d="M 68 35 A 13 13 0 1 1 67.99999350000054 34.98700000216666"/><path fill="none" stroke="rgb(0,0,0)" stroke-linecap="square" stroke-miterlimit="10" stroke-width="4" paint-order="fill stroke markers" d="M 68 35 A 13 13 0 1 1 67.99999350000054 34.98700000216666"/><text fill="rgb(0,0,0)" stroke="none" font-family="sans-serif" font-size="18px" font-style="italic" font-weight="normal" text-decoration="" x="33" y="35" text-anchor="end" dominant-baseline="central">A</text><text fill="rgb(255,255,255)" stroke="none" font-family="sans-serif" font-size="18px" font-style="normal" font-weight="bold" text-decoration="" x="55" y="35" text-anchor="middle" dominant-baseline="central">?</text><path fill="rgb(152,158,164)" stroke="none" paint-order="fill stroke markers" d="M 89 35 A 4 4 0 1 1 88.99999800000016 34.99600000066666"/><path fill="none" stroke="rgb(80,80,80)" stroke-linecap="square" stroke-miterlimit="10" paint-order="fill stroke markers" d="M 89 35 A 4 4 0 1 1 88.99999800000016 34.99600000066666"/></g><g class="Input"><path fill="none" stroke="rgb(80,80,80)" stroke-miterlimit="10" stroke-width="4" paint-order="fill stroke markers" d="M 85 75 L 63 75"/><path fill="none" stroke="rgb(152,158,164)" stroke-miterlimit="10" stroke-width="2" stroke-dasharray="20,20" paint-order="fill stroke markers" d="M 85 75 L 63 75"/><path fill="none" stroke="rgb(202,208,214)" stroke-miterlimit="10" stroke-width="2" stroke-dasharray="20,20" paint-order="fill stroke markers" d="M 85 75 L 63 75"/><path fill="rgb(0,0,0)" stroke="none" paint-order="fill stroke markers" d="M 67 81.75 L 73 75 L 67 68.25 Z"/><path fill="none" stroke="rgb(0,0,0)" stroke-linecap="square" stroke-miterlimit="10" stroke-width="3" paint-order="fill stroke markers" d="M 67 81.75 L 73 75 L 67 68.25 Z"/><path fill="rgb(152,158,164)" stroke="none" paint-order="fill stroke markers" d="M 68 75 A 13 13 0 1 1 67.99999350000054 74.98700000216665"/><path fill="none" stroke="rgb(0,0,0)" stroke-linecap="square" stroke-miterlimit="10" stroke-width="4" paint-order="fill stroke markers" d="M 68 75 A 13 13 0 1 1 67.99999350000054 74.98700000216665"/><text fill="rgb(0,0,0)" stroke="none" font-family="sans-serif" font-size="18px" font-style="italic" font-weight="normal" text-decoration="" x="33" y="75" text-anchor="end" dominant-baseline="central">B</text><text fill="rgb(255,255,255)" stroke="none" font-family="sans-serif" font-size="18px" font-style="normal" font-weight="bold" text-decoration="" x="55" y="75" text-anchor="middle" dominant-baseline="central">?</text><path fill="rgb(152,158,164)" stroke="none" paint-order="fill stroke markers" d="M 89 75 A 4 4 0 1 1 88.99999800000016 74.99600000066667"/><path fill="none" stroke="rgb(80,80,80)" stroke-linecap="square" stroke-miterlimit="10" paint-order="fill stroke markers" d="M 89 75 A 4 4 0 1 1 88.99999800000016 74.99600000066667"/></g><g class="Input"><path fill="none" stroke="rgb(80,80,80)" stroke-miterlimit="10" stroke-width="4" paint-order="fill stroke markers" d="M 85 115 L 63 115"/><path fill="none" stroke="rgb(152,158,164)" stroke-miterlimit="10" stroke-width="2" stroke-dasharray="20,20" paint-order="fill stroke markers" d="M 85 115 L 63 115"/><path fill="none" stroke="rgb(202,208,214)" stroke-miterlimit="10" stroke-width="2" stroke-dasharray="20,20" paint-order="fill stroke markers" d="M 85 115 L 63 115"/><path fill="rgb(0,0,0)" stroke="none" paint-order="fill stroke markers" d="M 67 121.75 L 73 115 L 67 108.25 Z"/><path fill="none" stroke="rgb(0,0,0)" stroke-linecap="square" stroke-miterlimit="10" stroke-width="3" paint-order="fill stroke markers" d="M 67 121.75 L 73 115 L 67 108.25 Z"/><path fill="rgb(152,158,164)" stroke="none" paint-order="fill stroke markers" d="M 68 115 A 13 13 0 1 1 67.99999350000054 114.98700000216665"/><path fill="none" stroke="rgb(0,0,0)" stroke-linecap="square" stroke-miterlimit="10" stroke-width="4" paint-order="fill stroke markers" d="M 68 115 A 13 13 0 1 1 67.99999350000054 114.98700000216665"/><text fill="rgb(0,0,0)" stroke="none" font-family="sans-serif" font-size="18px" font-style="italic" font-weight="normal" text-decoration="" x="33" y="115" text-anchor="end" dominant-baseline="central">C</text><text fill="rgb(255,255,255)" stroke="none" font-family="sans-serif" font-size="18px" font-style="normal" font-weight="bold" text-decoration="" x="55" y="115" text-anchor="middle" dominant-baseline="central">?</text><path fill="rgb(152,158,164)" stroke="none" paint-order="fill stroke markers" d="M 89 115 A 4 4 0 1 1 88.99999800000016 114.99600000066667"/><path fill="none" stroke="rgb(80,80,80)" stroke-linecap="square" stroke-miterlimit="10" paint-order="fill stroke markers" d="M 89 115 A 4 4 0 1 1 88.99999800000016 114.99600000066667"/></g><g class="Output"><path fill="none" stroke="rgb(80,80,80)" stroke-miterlimit="10" stroke-width="4" paint-order="fill stroke markers" d="M 315 50 L 345 50"/><path fill="none" stroke="rgb(152,158,164)" stroke-miterlimit="10" stroke-width="2" stroke-dasharray="20,20" paint-order="fill stroke markers" d="M 315 50 L 345 50"/><path fill="none" stroke="rgb(202,208,214)" stroke-miterlimit="10" stroke-width="2" stroke-dasharray="20,20" paint-order="fill stroke markers" d="M 315 50 L 345 50"/><path fill="rgb(0,0,0)" stroke="none" paint-order="fill stroke markers" d="M 327 45 L 327 55 L 331 50 Z"/><path fill="none" stroke="rgb(0,0,0)" stroke-linecap="square" stroke-miterlimit="10" stroke-width="2" paint-order="fill stroke markers" d="M 327 45 L 327 55 L 331 50 Z"/><path fill="rgb(152,158,164)" stroke="none" paint-order="fill stroke markers" d="M 358 50 A 13 13 0 1 1 357.9999935000005 49.98700000216666"/><path fill="none" stroke="rgb(0,0,0)" stroke-linecap="square" stroke-miterlimit="10" stroke-width="4" paint-order="fill stroke markers" d="M 358 50 A 13 13 0 1 1 357.9999935000005 49.98700000216666"/><text fill="rgb(0,0,0)" stroke="none" font-family="sans-serif" font-size="18px" font-style="italic" font-weight="normal" text-decoration="" x="365" y="50" text-anchor="start" dominant-baseline="central">X</text><text fill="rgb(255,255,255)" stroke="none" font-family="sans-serif" font-size="18px" font-style="normal" font-weight="bold" text-decoration="" x="345" y="50" text-anchor="middle" dominant-baseline="central">?</text><path fill="rgb(152,158,164)" stroke="none" paint-order="fill stroke markers" d="M 311 50 A 4 4 180 1 1 311.0000019999998 50.00399999933334"/><path fill="none" stroke="rgb(80,80,80)" stroke-linecap="square" stroke-miterlimit="10" paint-order="fill stroke markers" d="M 311 50 A 4 4 180 1 1 311.0000019999998 50.00399999933334"/></g><g class="Output"><path fill="none" stroke="rgb(80,80,80)" stroke-miterlimit="10" stroke-width="4" paint-order="fill stroke markers" d="M 315 85 L 345 85"/><path fill="none" stroke="rgb(152,158,164)" stroke-miterlimit="10" stroke-width="2" stroke-dasharray="20,20" paint-order="fill stroke markers" d="M 315 85 L 345 85"/><path fill="none" stroke="rgb(202,208,214)" stroke-miterlimit="10" stroke-width="2" stroke-dasharray="20,20" paint-order="fill stroke markers" d="M 315 85 L 345 85"/><path fill="rgb(0,0,0)" stroke="none" paint-order="fill stroke markers" d="M 327 80 L 327 90 L 331 85 Z"/><path fill="none" stroke="rgb(0,0,0)" stroke-linecap="square" stroke-miterlimit="10" stroke-width="2" paint-order="fill stroke markers" d="M 327 80 L 327 90 L 331 85 Z"/><path fill="rgb(152,158,164)" stroke="none" paint-order="fill stroke markers" d="M 358 85 A 13 13 0 1 1 357.9999935000005 84.98700000216665"/><path fill="none" stroke="rgb(0,0,0)" stroke-linecap="square" stroke-miterlimit="10" stroke-width="4" paint-order="fill stroke markers" d="M 358 85 A 13 13 0 1 1 357.9999935000005 84.98700000216665"/><text fill="rgb(0,0,0)" stroke="none" font-family="sans-serif" font-size="18px" font-style="italic" font-weight="normal" text-decoration="" x="365" y="85" text-anchor="start" dominant-baseline="central">Y</text><text fill="rgb(255,255,255)" stroke="none" font-family="sans-serif" font-size="18px" font-style="normal" font-weight="bold" text-decoration="" x="345" y="85" text-anchor="middle" dominant-baseline="central">?</text><path fill="rgb(152,158,164)" stroke="none" paint-order="fill stroke markers" d="M 311 85 A 4 4 180 1 1 311.0000019999998 85.00399999933333"/><path fill="none" stroke="rgb(80,80,80)" stroke-linecap="square" stroke-miterlimit="10" paint-order="fill stroke markers" d="M 311 85 A 4 4 180 1 1 311.0000019999998 85.00399999933333"/></g></g><g class="overlays"/></g></svg>