<svg version="1.1" xmlns="http://www.w3.org/2000/svg" xmlns:xlink="http://www.w3.org/1999/xlink" width="380" height="163"><metadata>{ // JSON5
  v: 6,
  opts: {hideWireColors: true, hideInputColors: true, hideOutputColors: true},
  components: {
    in0: {type: 'in', pos: [65, 45], id: 0, name: 'A'},
    in1: {type: 'in', pos: [65, 85], id: 1, name: 'B'},
    in2: {type: 'in', pos: [65, 125], id: 2, name: 'C'},
    out0: {type: 'out', pos: [315, 45], id: 9, name: 'X'},
    out1: {type: 'out', pos: [315, 95], id: 10, name: 'Y'},
    not0: {type: 'not', pos: [245, 45], in: 11, out: 12},
    xor0: {type: 'xor', pos: [165, 105], in: [13, 14], out: 15},
    and0: {type: 'and', pos: [245, 95], in: [16, 17], out: 18},
  },
  wires: [[0, 11], [0, 16], [1, 13], [2, 14], [15, 17], [18, 10], [12, 9]]
}</metadata><g/><g><g class="background"/><g class="wires"><path fill="none" stroke="rgb(80,80,80)" stroke-miterlimit="10" stroke-width="4" stroke-dasharray="118,118" paint-order="fill stroke markers" d="M95 45 M91 45 L95 45 L205 45 L209 45 "/><path fill="none" stroke="rgb(152,158,164)" stroke-miterlimit="10" stroke-width="2" stroke-dasharray="118,118" paint-order="fill stroke markers" d="M95 45 M91 45 L95 45 L205 45 L209 45 "/><path fill="none" stroke="rgb(80,80,80)" stroke-miterlimit="10" stroke-width="4" stroke-dasharray="118.285888671875,118.285888671875" paint-order="fill stroke markers" d="M95 45 C131.66666666666666 45,168.33333333333334 85,205 85 "/><path fill="none" stroke="rgb(152,158,164)" stroke-miterlimit="10" stroke-width="2" stroke-dasharray="118.285888671875,118.285888671875" paint-order="fill stroke markers" d="M95 45 C131.66666666666666 45,168.33333333333334 85,205 85 "/><path fill="none" stroke="rgb(80,80,80)" stroke-miterlimit="10" stroke-width="4" stroke-dasharray="33.54071044921875,33.54071044921875" paint-order="fill stroke markers" d="M95 85 C120 85,100 95,125 95 "/><path fill="none" stroke="rgb(152,158,164)" stroke-miterlimit="10" stroke-width="2" stroke-dasharray="33.54071044921875,33.54071044921875" paint-order="fill stroke markers" d="M95 85 C120 85,100 95,125 95 "/><path fill="none" stroke="rgb(80,80,80)" stroke-miterlimit="10" stroke-width="4" stroke-dasharray="33.54071044921875,33.54071044921875" paint-order="fill stroke markers" d="M95 125 C120 125,100 115,125 115 "/><path fill="none" stroke="rgb(152,158,164)" stroke-miterlimit="10" stroke-width="2" stroke-dasharray="33.54071044921875,33.54071044921875" paint-order="fill stroke markers" d="M95 125 C120 125,100 115,125 115 "/><path fill="none" stroke="rgb(80,80,80)" stroke-miterlimit="10" stroke-width="4" stroke-dasharray="8,8" paint-order="fill stroke markers" d="M205 105 M201 105 L205 105 L205 105 L209 105 "/><path fill="none" stroke="rgb(152,158,164)" stroke-miterlimit="10" stroke-width="2" stroke-dasharray="8,8" paint-order="fill stroke markers" d="M205 105 M201 105 L205 105 L205 105 L209 105 "/><path fill="none" stroke="rgb(80,80,80)" stroke-miterlimit="10" stroke-width="4" stroke-dasharray="8,8" paint-order="fill stroke markers" d="M285 95 M281 95 L285 95 L285 95 L289 95 "/><path fill="none" stroke="rgb(152,158,164)" stroke-miterlimit="10" stroke-width="2" stroke-dasharray="8,8" paint-order="fill stroke markers" d="M285 95 M281 95 L285 95 L285 95 L289 95 "/><path fill="none" stroke="rgb(80,80,80)" stroke-miterlimit="10" stroke-width="4" stroke-dasharray="8,8" paint-order="fill stroke markers" d="M285 45 M281 45 L285 45 L285 45 L289 45 "/><path fill="none" stroke="rgb(152,158,164)" stroke-miterlimit="10" stroke-width="2" stroke-dasharray="8,8" paint-order="fill stroke markers" d="M285 45 M281 45 L285 45 L285 45 L289 45 "/></g><g class="components"><g class="Input"><path fill="none" stroke="rgb(80,80,80)" stroke-miterlimit="10" stroke-width="4" paint-order="fill stroke markers" d="M 95 45 L 73 45"/><path fill="none" stroke="rgb(152,158,164)" stroke-miterlimit="10" stroke-width="2" stroke-dasharray="20,20" paint-order="fill stroke markers" d="M 95 45 L 73 45"/><path fill="none" stroke="rgb(202,208,214)" stroke-miterlimit="10" stroke-width="2" stroke-dasharray="20,20" paint-order="fill stroke markers" d="M 95 45 L 73 45"/><path fill="rgb(0,0,0)" stroke="none" paint-order="fill stroke markers" d="M 77 51.75 L 83 45 L 77 38.25 Z"/><path fill="none" stroke="rgb(0,0,0)" stroke-linecap="square" stroke-miterlimit="10" stroke-width="3" paint-order="fill stroke markers" d="M 77 51.75 L 83 45 L 77 38.25 Z"/><path fill="rgb(152,158,164)" stroke="none" paint-order="fill stroke markers" d="M 78 45 A 13 13 0 1 1 77.99999350000054 44.98700000216666"/><path fill="none" stroke="rgb(0,0,0)" stroke-linecap="square" stroke-miterlimit="10" stroke-width="4" paint-order="fill stroke markers" d="M 78 45 A 13 13 0 1 1 77.99999350000054 44.98700000216666"/><text fill="rgb(0,0,0)" stroke="none" font-family="sans-serif" font-size="18px" font-style="italic" font-weight="normal" text-decoration="" x="43" y="45" text-anchor="end" dominant-baseline="central">A</text><text fill="rgb(255,255,255)" stroke="none" font-family="sans-serif" font-size="18px" font-style="normal" font-weight="bold" text-decoration="" x="65" y="45" text-anchor="middle" dominant-baseline="central">?</text><path fill="rgb(152,158,164)" stroke="none" paint-order="fill stroke markers" d="M 99 45 A 4 4 0 1 1 98.99999800000016 44.99600000066666"/><path fill="none" stroke="rgb(80,80,80)" stroke-linecap="square" stroke-miterlimit="10" paint-order="fill stroke markers" d="M 99 45 A 4 4 0 1 1 98.99999800000016 44.99600000066666"/></g><g class="Input"><path fill="none" stroke="rgb(80,80,80)" stroke-miterlimit="10" stroke-width="4" paint-order="fill stroke markers" d="M 95 85 L 73 85"/><path fill="none" stroke="rgb(152,158,164)" stroke-miterlimit="10" stroke-width="2" stroke-dasharray="20,20" paint-order="fill stroke markers" d="M 95 85 L 73 85"/><path fill="none" stroke="rgb(202,208,214)" stroke-miterlimit="10" stroke-width="2" stroke-dasharray="20,20" paint-order="fill stroke markers" d="M 95 85 L 73 85"/><path fill="rgb(0,0,0)" stroke="none" paint-order="fill stroke markers" d="M 77 91.75 L 83 85 L 77 78.25 Z"/><path fill="none" stroke="rgb(0,0,0)" stroke-linecap="square" stroke-miterlimit="10" stroke-width="3" paint-order="fill stroke markers" d="M 77 91.75 L 83 85 L 77 78.25 Z"/><path fill="rgb(152,158,164)" stroke="none" paint-order="fill stroke markers" d="M 78 85 A 13 13 0 1 1 77.99999350000054 84.98700000216665"/><path fill="none" stroke="rgb(0,0,0)" stroke-linecap="square" stroke-miterlimit="10" stroke-width="4" paint-order="fill stroke markers" d="M 78 85 A 13 13 0 1 1 77.99999350000054 84.98700000216665"/><text fill="rgb(0,0,0)" stroke="none" font-family="sans-serif" font-size="18px" font-style="italic" font-weight="normal" text-decoration="" x="43" y="85" text-anchor="end" dominant-baseline="central">B</text><text fill="rgb(255,255,255)" stroke="none" font-family="sans-serif" font-size="18px" font-style="normal" font-weight="bold" text-decoration="" x="65" y="85" text-anchor="middle" dominant-baseline="central">?</text><path fill="rgb(152,158,164)" stroke="none" paint-order="fill stroke markers" d="M 99 85 A 4 4 0 1 1 98.99999800000016 84.99600000066667"/><path fill="none" stroke="rgb(80,80,80)" stroke-linecap="square" stroke-miterlimit="10" paint-order="fill stroke markers" d="M 99 85 A 4 4 0 1 1 98.99999800000016 84.99600000066667"/></g><g class="Input"><path fill="none" stroke="rgb(80,80,80)" stroke-miterlimit="10" stroke-width="4" paint-order="fill stroke markers" d="M 95 125 L 73 125"/><path fill="none" stroke="rgb(152,158,164)" stroke-miterlimit="10" stroke-width="2" stroke-dasharray="20,20" paint-order="fill stroke markers" d="M 95 125 L 73 125"/><path fill="none" stroke="rgb(202,208,214)" stroke-miterlimit="10" stroke-width="2" stroke-dasharray="20,20" paint-order="fill stroke markers" d="M 95 125 L 73 125"/><path fill="rgb(0,0,0)" stroke="none" paint-order="fill stroke markers" d="M 77 131.75 L 83 125 L 77 118.25 Z"/><path fill="none" stroke="rgb(0,0,0)" stroke-linecap="square" stroke-miterlimit="10" stroke-width="3" paint-order="fill stroke markers" d="M 77 131.75 L 83 125 L 77 118.25 Z"/><path fill="rgb(152,158,164)" stroke="none" paint-order="fill stroke markers" d="M 78 125 A 13 13 0 1 1 77.99999350000054 124.98700000216665"/><path fill="none" stroke="rgb(0,0,0)" stroke-linecap="square" stroke-miterlimit="10" stroke-width="4" paint-order="fill stroke markers" d="M 78 125 A 13 13 0 1 1 77.99999350000054 124.98700000216665"/><text fill="rgb(0,0,0)" stroke="none" font-family="sans-serif" font-size="18px" font-style="italic" font-weight="normal" text-decoration="" x="43" y="125" text-anchor="end" dominant-baseline="central">C</text><text fill="rgb(255,255,255)" stroke="none" font-family="sans-serif" font-size="18px" font-style="normal" font-weight="bold" text-decoration="" x="65" y="125" text-anchor="middle" dominant-baseline="central">?</text><path fill="rgb(152,158,164)" stroke="none" paint-order="fill stroke markers" d="M 99 125 A 4 4 0 1 1 98.99999800000016 124.99600000066667"/><path fill="none" stroke="rgb(80,80,80)" stroke-linecap="square" stroke-miterlimit="10" paint-order="fill stroke markers" d="M 99 125 A 4 4 0 1 1 98.99999800000016 124.99600000066667"/></g><g class="Output"><path fill="none" stroke="rgb(80,80,80)" stroke-miterlimit="10" stroke-width="4" paint-order="fill stroke markers" d="M 285 45 L 315 45"/><path fill="none" stroke="rgb(152,158,164)" stroke-miterlimit="10" stroke-width="2" stroke-dasharray="20,20" paint-order="fill stroke markers" d="M 285 45 L 315 45"/><path fill="none" stroke="rgb(202,208,214)" stroke-miterlimit="10" stroke-width="2" stroke-dasharray="20,20" paint-order="fill stroke markers" d="M 285 45 L 315 45"/><path fill="rgb(0,0,0)" stroke="none" paint-order="fill stroke markers" d="M 297 40 L 297 50 L 301 45 Z"/><path fill="none" stroke="rgb(0,0,0)" stroke-linecap="square" stroke-miterlimit="10" stroke-width="2" paint-order="fill stroke markers" d="M 297 40 L 297 50 L 301 45 Z"/><path fill="rgb(152,158,164)" stroke="none" paint-order="fill stroke markers" d="M 328 45 A 13 13 0 1 1 327.9999935000005 44.98700000216666"/><path fill="none" stroke="rgb(0,0,0)" stroke-linecap="square" stroke-miterlimit="10" stroke-width="4" paint-order="fill stroke markers" d="M 328 45 A 13 13 0 1 1 327.9999935000005 44.98700000216666"/><text fill="rgb(0,0,0)" stroke="none" font-family="sans-serif" font-size="18px" font-style="italic" font-weight="normal" text-decoration="" x="335" y="45" text-anchor="start" dominant-baseline="central">X</text><text fill="rgb(255,255,255)" stroke="none" font-family="sans-serif" font-size="18px" font-style="normal" font-weight="bold" text-decoration="" x="315" y="45" text-anchor="middle" dominant-baseline="central">?</text><path fill="rgb(152,158,164)" stroke="none" paint-order="fill stroke markers" d="M 281 45 A 4 4 180 1 1 281.0000019999998 45.00399999933334"/><path fill="none" stroke="rgb(80,80,80)" stroke-linecap="square" stroke-miterlimit="10" paint-order="fill stroke markers" d="M 281 45 A 4 4 180 1 1 281.0000019999998 45.00399999933334"/></g><g class="Output"><path fill="none" stroke="rgb(80,80,80)" stroke-miterlimit="10" stroke-width="4" paint-order="fill stroke markers" d="M 285 95 L 315 95"/><path fill="none" stroke="rgb(152,158,164)" stroke-miterlimit="10" stroke-width="2" stroke-dasharray="20,20" paint-order="fill stroke markers" d="M 285 95 L 315 95"/><path fill="none" stroke="rgb(202,208,214)" stroke-miterlimit="10" stroke-width="2" stroke-dasharray="20,20" paint-order="fill stroke markers" d="M 285 95 L 315 95"/><path fill="rgb(0,0,0)" stroke="none" paint-order="fill stroke markers" d="M 297 90 L 297 100 L 301 95 Z"/><path fill="none" stroke="rgb(0,0,0)" stroke-linecap="square" stroke-miterlimit="10" stroke-width="2" paint-order="fill stroke markers" d="M 297 90 L 297 100 L 301 95 Z"/><path fill="rgb(152,158,164)" stroke="none" paint-order="fill stroke markers" d="M 328 95 A 13 13 0 1 1 327.9999935000005 94.98700000216665"/><path fill="none" stroke="rgb(0,0,0)" stroke-linecap="square" stroke-miterlimit="10" stroke-width="4" paint-order="fill stroke markers" d="M 328 95 A 13 13 0 1 1 327.9999935000005 94.98700000216665"/><text fill="rgb(0,0,0)" stroke="none" font-family="sans-serif" font-size="18px" font-style="italic" font-weight="normal" text-decoration="" x="335" y="95" text-anchor="start" dominant-baseline="central">Y</text><text fill="rgb(255,255,255)" stroke="none" font-family="sans-serif" font-size="18px" font-style="normal" font-weight="bold" text-decoration="" x="315" y="95" text-anchor="middle" dominant-baseline="central">?</text><path fill="rgb(152,158,164)" stroke="none" paint-order="fill stroke markers" d="M 281 95 A 4 4 180 1 1 281.0000019999998 95.00399999933333"/><path fill="none" stroke="rgb(80,80,80)" stroke-linecap="square" stroke-miterlimit="10" paint-order="fill stroke markers" d="M 281 95 A 4 4 180 1 1 281.0000019999998 95.00399999933333"/></g><g class="Gate1"><path fill="none" stroke="rgb(80,80,80)" stroke-miterlimit="10" stroke-width="4" paint-order="fill stroke markers" d="M 205 45 L 225 45"/><path fill="none" stroke="rgb(152,158,164)" stroke-miterlimit="10" stroke-width="2" stroke-dasharray="20,20" paint-order="fill stroke markers" d="M 205 45 L 225 45"/><path fill="none" stroke="rgb(202,208,214)" stroke-miterlimit="10" stroke-width="2" stroke-dasharray="20,20" paint-order="fill stroke markers" d="M 205 45 L 225 45"/><path fill="none" stroke="rgb(80,80,80)" stroke-miterlimit="10" stroke-width="4" paint-order="fill stroke markers" d="M 285 45 L 264 45"/><path fill="none" stroke="rgb(152,158,164)" stroke-miterlimit="10" stroke-width="2" stroke-dasharray="20,20" paint-order="fill stroke markers" d="M 285 45 L 264 45"/><path fill="none" stroke="rgb(202,208,214)" stroke-miterlimit="10" stroke-width="2" stroke-dasharray="20,20" paint-order="fill stroke markers" d="M 285 45 L 264 45"/><path fill="rgb(255,255,255)" stroke="none" paint-order="fill stroke markers" d="M 225 25 L 265 45 L 225 65 Z"/><path fill="none" stroke="rgb(0,0,0)" stroke-linecap="square" stroke-miterlimit="10" stroke-width="3" paint-order="fill stroke markers" d="M 225 25 L 265 45 L 225 65 Z"/><path fill="rgb(255,255,255)" stroke="none" paint-order="fill stroke markers" d="M 274 45 A 4 4 0 1 1 273.9999980000002 44.99600000066666"/><path fill="none" stroke="rgb(0,0,0)" stroke-linecap="square" stroke-miterlimit="10" stroke-width="3" paint-order="fill stroke markers" d="M 274 45 A 4 4 0 1 1 273.9999980000002 44.99600000066666"/><path fill="rgb(152,158,164)" stroke="none" paint-order="fill stroke markers" d="M 201 45 A 4 4 180 1 1 201.00000199999982 45.00399999933334"/><path fill="none" stroke="rgb(80,80,80)" stroke-linecap="square" stroke-miterlimit="10" paint-order="fill stroke markers" d="M 201 45 A 4 4 180 1 1 201.00000199999982 45.00399999933334"/><path fill="rgb(152,158,164)" stroke="none" paint-order="fill stroke markers" d="M 289 45 A 4 4 0 1 1 288.9999980000002 44.99600000066666"/><path fill="none" stroke="rgb(80,80,80)" stroke-linecap="square" stroke-miterlimit="10" paint-order="fill stroke markers" d="M 289 45 A 4 4 0 1 1 288.9999980000002 44.99600000066666"/></g><g class="GateN"><path fill="none" stroke="rgb(80,80,80)" stroke-miterlimit="10" stroke-width="4" paint-order="fill stroke markers" d="M 125 95 L 144 95"/><path fill="none" stroke="rgb(152,158,164)" stroke-miterlimit="10" stroke-width="2" stroke-dasharray="20,20" paint-order="fill stroke markers" d="M 125 95 L 144 95"/><path fill="none" stroke="rgb(202,208,214)" stroke-miterlimit="10" stroke-width="2" stroke-dasharray="20,20" paint-order="fill stroke markers" d="M 125 95 L 144 95"/><path fill="none" stroke="rgb(80,80,80)" stroke-miterlimit="10" stroke-width="4" paint-order="fill stroke markers" d="M 125 115 L 144 115"/><path fill="none" stroke="rgb(152,158,164)" stroke-miterlimit="10" stroke-width="2" stroke-dasharray="20,20" paint-order="fill stroke markers" d="M 125 115 L 144 115"/><path fill="none" stroke="rgb(202,208,214)" stroke-miterlimit="10" stroke-width="2" stroke-dasharray="20,20" paint-order="fill stroke markers" d="M 125 115 L 144 115"/><path fill="none" stroke="rgb(80,80,80)" stroke-miterlimit="10" stroke-width="4" paint-order="fill stroke markers" d="M 205 105 L 184 105"/><path fill="none" stroke="rgb(152,158,164)" stroke-miterlimit="10" stroke-width="2" stroke-dasharray="20,20" paint-order="fill stroke markers" d="M 205 105 L 184 105"/><path fill="none" stroke="rgb(202,208,214)" stroke-miterlimit="10" stroke-width="2" stroke-dasharray="20,20" paint-order="fill stroke markers" d="M 205 105 L 184 105"/><path fill="rgb(255,255,255)" stroke="none" paint-order="fill stroke markers" d="M 145 85 L 150 85 C 175 85 180 97 185 105 C 180 113 175 125 150 125 L 145 125 Q 157 105 145 85 Z"/><path fill="none" stroke="rgb(0,0,0)" stroke-linecap="square" stroke-miterlimit="10" stroke-width="3" paint-order="fill stroke markers" d="M 145 85 L 150 85 C 175 85 180 97 185 105 C 180 113 175 125 150 125 L 145 125 Q 157 105 145 85 Z"/><path fill="none" stroke="rgb(0,0,0)" stroke-linecap="square" stroke-miterlimit="10" stroke-width="3" paint-order="fill stroke markers" d="M 139 125 Q 151 105 139 85"/><path fill="rgb(152,158,164)" stroke="none" paint-order="fill stroke markers" d="M 121 95 A 4 4 180 1 1 121.00000199999984 95.00399999933333"/><path fill="none" stroke="rgb(80,80,80)" stroke-linecap="square" stroke-miterlimit="10" paint-order="fill stroke markers" d="M 121 95 A 4 4 180 1 1 121.00000199999984 95.00399999933333"/><path fill="rgb(152,158,164)" stroke="none" paint-order="fill stroke markers" d="M 121 115 A 4 4 180 1 1 121.00000199999984 115.00399999933333"/><path fill="none" stroke="rgb(80,80,80)" stroke-linecap="square" stroke-miterlimit="10" paint-order="fill stroke markers" d="M 121 115 A 4 4 180 1 1 121.00000199999984 115.00399999933333"/><path fill="rgb(152,158,164)" stroke="none" paint-order="fill stroke markers" d="M 209 105 A 4 4 0 1 1 208.99999800000018 104.99600000066667"/><path fill="none" stroke="rgb(80,80,80)" stroke-linecap="square" stroke-miterlimit="10" paint-order="fill stroke markers" d="M 209 105 A 4 4 0 1 1 208.99999800000018 104.99600000066667"/></g><g class="GateN"><path fill="none" stroke="rgb(80,80,80)" stroke-miterlimit="10" stroke-width="4" paint-order="fill stroke markers" d="M 205 85 L 225 85"/><path fill="none" stroke="rgb(152,158,164)" stroke-miterlimit="10" stroke-width="2" stroke-dasharray="20,20" paint-order="fill stroke markers" d="M 205 85 L 225 85"/><path fill="none" stroke="rgb(202,208,214)" stroke-miterlimit="10" stroke-width="2" stroke-dasharray="20,20" paint-order="fill stroke markers" d="M 205 85 L 225 85"/><path fill="none" stroke="rgb(80,80,80)" stroke-miterlimit="10" stroke-width="4" paint-order="fill stroke markers" d="M 205 105 L 225 105"/><path fill="none" stroke="rgb(152,158,164)" stroke-miterlimit="10" stroke-width="2" stroke-dasharray="20,20" paint-order="fill stroke markers" d="M 205 105 L 225 105"/><path fill="none" stroke="rgb(202,208,214)" stroke-miterlimit="10" stroke-width="2" stroke-dasharray="20,20" paint-order="fill stroke markers" d="M 205 105 L 225 105"/><path fill="none" stroke="rgb(80,80,80)" stroke-miterlimit="10" stroke-width="4" paint-order="fill stroke markers" d="M 285 95 L 264 95"/><path fill="none" stroke="rgb(152,158,164)" stroke-miterlimit="10" stroke-width="2" stroke-dasharray="20,20" paint-order="fill stroke markers" d="M 285 95 L 264 95"/><path fill="none" stroke="rgb(202,208,214)" stroke-miterlimit="10" stroke-width="2" stroke-dasharray="20,20" paint-order="fill stroke markers" d="M 285 95 L 264 95"/><path fill="rgb(255,255,255)" stroke="none" paint-order="fill stroke markers" d="M 245 115 L 225 115 L 225 75 L 245 75 L 245 75 A 20 20 0 0 1 245 115 Z"/><path fill="none" stroke="rgb(0,0,0)" stroke-linecap="square" stroke-miterlimit="10" paint-order="fill stroke markers" d="M 245 115 L 225 115 L 225 75 L 245 75 L 245 75 A 20 20 0 0 1 245 115 Z"/><path fill="none" stroke="rgb(0,0,0)" stroke-linecap="square" stroke-miterlimit="10" stroke-width="3" paint-order="fill stroke markers" d="M 245 115 L 225 115 L 225 75 L 245 75 L 245 75 A 20 20 0 0 1 245 115 Z"/><path fill="rgb(152,158,164)" stroke="none" paint-order="fill stroke markers" d="M 201 85 A 4 4 180 1 1 201.00000199999982 85.00399999933333"/><path fill="none" stroke="rgb(80,80,80)" stroke-linecap="square" stroke-miterlimit="10" paint-order="fill stroke markers" d="M 201 85 A 4 4 180 1 1 201.00000199999982 85.00399999933333"/><path fill="rgb(152,158,164)" stroke="none" paint-order="fill stroke markers" d="M 201 105 A 4 4 180 1 1 201.00000199999982 105.00399999933333"/><path fill="none" stroke="rgb(80,80,80)" stroke-linecap="square" stroke-miterlimit="10" paint-order="fill stroke markers" d="M 201 105 A 4 4 180 1 1 201.00000199999982 105.00399999933333"/><path fill="rgb(152,158,164)" stroke="none" paint-order="fill stroke markers" d="M 289 95 A 4 4 0 1 1 288.9999980000002 94.99600000066667"/><path fill="none" stroke="rgb(80,80,80)" stroke-linecap="square" stroke-miterlimit="10" paint-order="fill stroke markers" d="M 289 95 A 4 4 0 1 1 288.9999980000002 94.99600000066667"/></g></g><g class="overlays"/></g></svg>