<svg version="1.1" xmlns="http://www.w3.org/2000/svg" xmlns:xlink="http://www.w3.org/1999/xlink" width="395" height="170"><metadata>{ // JSON5
  v: 6,
  opts: {hideWireColors: true, hideInputColors: true, hideOutputColors: true},
  components: {
    in0: {type: 'in', pos: [65, 45], id: 0, name: 'A'},
    in1: {type: 'in', pos: [65, 85], id: 1, name: 'B'},
    in2: {type: 'in', pos: [65, 125], id: 2, name: 'C'},
    and0: {type: 'and', pos: [160, 65], in: [3, 4], out: 5},
    or0: {type: 'or', pos: [260, 75], in: [6, 7], out: 8},
    out0: {type: 'out', pos: [330, 75], id: 9, name: 'X'},
    out1: {type: 'out', pos: [330, 125], id: 10, name: 'Y'},
  },
  wires: [[0, 3], [1, 4], [5, 6], [2, 7], [8, 9], [2, 10]]
}</metadata><g/><g><g class="background"/><g class="wires"><path fill="none" stroke="rgb(80,80,80)" stroke-miterlimit="10" stroke-width="4" stroke-dasharray="30.313425064086914,30.313425064086914" paint-order="fill stroke markers" d="M95 45 C120 45,95 55,120 55 "/><path fill="none" stroke="rgb(152,158,164)" stroke-miterlimit="10" stroke-width="2" stroke-dasharray="30.313425064086914,30.313425064086914" paint-order="fill stroke markers" d="M95 45 C120 45,95 55,120 55 "/><path fill="none" stroke="rgb(80,80,80)" stroke-miterlimit="10" stroke-width="4" stroke-dasharray="30.31342887878418,30.31342887878418" paint-order="fill stroke markers" d="M95 85 C120 85,95 75,120 75 "/><path fill="none" stroke="rgb(152,158,164)" stroke-miterlimit="10" stroke-width="2" stroke-dasharray="30.31342887878418,30.31342887878418" paint-order="fill stroke markers" d="M95 85 C120 85,95 75,120 75 "/><path fill="none" stroke="rgb(80,80,80)" stroke-miterlimit="10" stroke-width="4" stroke-dasharray="28,28" paint-order="fill stroke markers" d="M200 65 M196 65 L200 65 L220 65 L224 65 "/><path fill="none" stroke="rgb(152,158,164)" stroke-miterlimit="10" stroke-width="2" stroke-dasharray="28,28" paint-order="fill stroke markers" d="M200 65 M196 65 L200 65 L220 65 L224 65 "/><path fill="none" stroke="rgb(80,80,80)" stroke-miterlimit="10" stroke-width="4" stroke-dasharray="132.37188720703125,132.37188720703125" paint-order="fill stroke markers" d="M95 125 C136.66666666666666 125,178.33333333333334 85,220 85 "/><path fill="none" stroke="rgb(152,158,164)" stroke-miterlimit="10" stroke-width="2" stroke-dasharray="132.37188720703125,132.37188720703125" paint-order="fill stroke markers" d="M95 125 C136.66666666666666 125,178.33333333333334 85,220 85 "/><path fill="none" stroke="rgb(80,80,80)" stroke-miterlimit="10" stroke-width="4" stroke-dasharray="8,8" paint-order="fill stroke markers" d="M300 75 M296 75 L300 75 L300 75 L304 75 "/><path fill="none" stroke="rgb(152,158,164)" stroke-miterlimit="10" stroke-width="2" stroke-dasharray="8,8" paint-order="fill stroke markers" d="M300 75 M296 75 L300 75 L300 75 L304 75 "/><path fill="none" stroke="rgb(80,80,80)" stroke-miterlimit="10" stroke-width="4" stroke-dasharray="213,213" paint-order="fill stroke markers" d="M95 125 M91 125 L95 125 L300 125 L304 125 "/><path fill="none" stroke="rgb(152,158,164)" stroke-miterlimit="10" stroke-width="2" stroke-dasharray="213,213" paint-order="fill stroke markers" d="M95 125 M91 125 L95 125 L300 125 L304 125 "/></g><g class="components"><g class="Input"><path fill="none" stroke="rgb(80,80,80)" stroke-miterlimit="10" stroke-width="4" paint-order="fill stroke markers" d="M 95 45 L 73 45"/><path fill="none" stroke="rgb(152,158,164)" stroke-miterlimit="10" stroke-width="2" stroke-dasharray="20,20" paint-order="fill stroke markers" d="M 95 45 L 73 45"/><path fill="none" stroke="rgb(202,208,214)" stroke-miterlimit="10" stroke-width="2" stroke-dasharray="20,20" paint-order="fill stroke markers" d="M 95 45 L 73 45"/><path fill="rgb(0,0,0)" stroke="none" paint-order="fill stroke markers" d="M 77 51.75 L 83 45 L 77 38.25 Z"/><path fill="none" stroke="rgb(0,0,0)" stroke-linecap="square" stroke-miterlimit="10" stroke-width="3" paint-order="fill stroke markers" d="M 77 51.75 L 83 45 L 77 38.25 Z"/><path fill="rgb(152,158,164)" stroke="none" paint-order="fill stroke markers" d="M 78 45 A 13 13 0 1 1 77.99999350000054 44.98700000216666"/><path fill="none" stroke="rgb(0,0,0)" stroke-linecap="square" stroke-miterlimit="10" stroke-width="4" paint-order="fill stroke markers" d="M 78 45 A 13 13 0 1 1 77.99999350000054 44.98700000216666"/><text fill="rgb(0,0,0)" stroke="none" font-family="sans-serif" font-size="18px" font-style="italic" font-weight="normal" text-decoration="" x="43" y="45" text-anchor="end" dominant-baseline="central">A</text><text fill="rgb(255,255,255)" stroke="none" font-family="sans-serif" font-size="18px" font-style="normal" font-weight="bold" text-decoration="" x="65" y="45" text-anchor="middle" dominant-baseline="central">?</text><path fill="rgb(152,158,164)" stroke="none" paint-order="fill stroke markers" d="M 99 45 A 4 4 0 1 1 98.99999800000016 44.99600000066666"/><path fill="none" stroke="rgb(80,80,80)" stroke-linecap="square" stroke-miterlimit="10" paint-order="fill stroke markers" d="M 99 45 A 4 4 0 1 1 98.99999800000016 44.99600000066666"/></g><g class="Input"><path fill="none" stroke="rgb(80,80,80)" stroke-miterlimit="10" stroke-width="4" paint-order="fill stroke markers" d="M 95 85 L 73 85"/><path fill="none" stroke="rgb(152,158,164)" stroke-miterlimit="10" stroke-width="2" stroke-dasharray="20,20" paint-order="fill stroke markers" d="M 95 85 L 73 85"/><path fill="none" stroke="rgb(202,208,214)" stroke-miterlimit="10" stroke-width="2" stroke-dasharray="20,20" paint-order="fill stroke markers" d="M 95 85 L 73 85"/><path fill="rgb(0,0,0)" stroke="none" paint-order="fill stroke markers" d="M 77 91.75 L 83 85 L 77 78.25 Z"/><path fill="none" stroke="rgb(0,0,0)" stroke-linecap="square" stroke-miterlimit="10" stroke-width="3" paint-order="fill stroke markers" d="M 77 91.75 L 83 85 L 77 78.25 Z"/><path fill="rgb(152,158,164)" stroke="none" paint-order="fill stroke markers" d="M 78 85 A 13 13 0 1 1 77.99999350000054 84.98700000216665"/><path fill="none" stroke="rgb(0,0,0)" stroke-linecap="square" stroke-miterlimit="10" stroke-width="4" paint-order="fill stroke markers" d="M 78 85 A 13 13 0 1 1 77.99999350000054 84.98700000216665"/><text fill="rgb(0,0,0)" stroke="none" font-family="sans-serif" font-size="18px" font-style="italic" font-weight="normal" text-decoration="" x="43" y="85" text-anchor="end" dominant-baseline="central">B</text><text fill="rgb(255,255,255)" stroke="none" font-family="sans-serif" font-size="18px" font-style="normal" font-weight="bold" text-decoration="" x="65" y="85" text-anchor="middle" dominant-baseline="central">?</text><path fill="rgb(152,158,164)" stroke="none" paint-order="fill stroke markers" d="M 99 85 A 4 4 0 1 1 98.99999800000016 84.99600000066667"/><path fill="none" stroke="rgb(80,80,80)" stroke-linecap="square" stroke-miterlimit="10" paint-order="fill stroke markers" d="M 99 85 A 4 4 0 1 1 98.99999800000016 84.99600000066667"/></g><g class="Input"><path fill="none" stroke="rgb(80,80,80)" stroke-miterlimit="10" stroke-width="4" paint-order="fill stroke markers" d="M 95 125 L 73 125"/><path fill="none" stroke="rgb(152,158,164)" stroke-miterlimit="10" stroke-width="2" stroke-dasharray="20,20" paint-order="fill stroke markers" d="M 95 125 L 73 125"/><path fill="none" stroke="rgb(202,208,214)" stroke-miterlimit="10" stroke-width="2" stroke-dasharray="20,20" paint-order="fill stroke markers" d="M 95 125 L 73 125"/><path fill="rgb(0,0,0)" stroke="none" paint-order="fill stroke markers" d="M 77 131.75 L 83 125 L 77 118.25 Z"/><path fill="none" stroke="rgb(0,0,0)" stroke-linecap="square" stroke-miterlimit="10" stroke-width="3" paint-order="fill stroke markers" d="M 77 131.75 L 83 125 L 77 118.25 Z"/><path fill="rgb(152,158,164)" stroke="none" paint-order="fill stroke markers" d="M 78 125 A 13 13 0 1 1 77.99999350000054 124.98700000216665"/><path fill="none" stroke="rgb(0,0,0)" stroke-linecap="square" stroke-miterlimit="10" stroke-width="4" paint-order="fill stroke markers" d="M 78 125 A 13 13 0 1 1 77.99999350000054 124.98700000216665"/><text fill="rgb(0,0,0)" stroke="none" font-family="sans-serif" font-size="18px" font-style="italic" font-weight="normal" text-decoration="" x="43" y="125" text-anchor="end" dominant-baseline="central">C</text><text fill="rgb(255,255,255)" stroke="none" font-family="sans-serif" font-size="18px" font-style="normal" font-weight="bold" text-decoration="" x="65" y="125" text-anchor="middle" dominant-baseline="central">?</text><path fill="rgb(152,158,164)" stroke="none" paint-order="fill stroke markers" d="M 99 125 A 4 4 0 1 1 98.99999800000016 124.99600000066667"/><path fill="none" stroke="rgb(80,80,80)" stroke-linecap="square" stroke-miterlimit="10" paint-order="fill stroke markers" d="M 99 125 A 4 4 0 1 1 98.99999800000016 124.99600000066667"/></g><g class="GateN"><path fill="none" stroke="rgb(80,80,80)" stroke-miterlimit="10" stroke-width="4" paint-order="fill stroke markers" d="M 120 55 L 140 55"/><path fill="none" stroke="rgb(152,158,164)" stroke-miterlimit="10" stroke-width="2" stroke-dasharray="20,20" paint-order="fill stroke markers" d="M 120 55 L 140 55"/><path fill="none" stroke="rgb(202,208,214)" stroke-miterlimit="10" stroke-width="2" stroke-dasharray="20,20" paint-order="fill stroke markers" d="M 120 55 L 140 55"/><path fill="none" stroke="rgb(80,80,80)" stroke-miterlimit="10" stroke-width="4" paint-order="fill stroke markers" d="M 120 75 L 140 75"/><path fill="none" stroke="rgb(152,158,164)" stroke-miterlimit="10" stroke-width="2" stroke-dasharray="20,20" paint-order="fill stroke markers" d="M 120 75 L 140 75"/><path fill="none" stroke="rgb(202,208,214)" stroke-miterlimit="10" stroke-width="2" stroke-dasharray="20,20" paint-order="fill stroke markers" d="M 120 75 L 140 75"/><path fill="none" stroke="rgb(80,80,80)" stroke-miterlimit="10" stroke-width="4" paint-order="fill stroke markers" d="M 200 65 L 179 65"/><path fill="none" stroke="rgb(152,158,164)" stroke-miterlimit="10" stroke-width="2" stroke-dasharray="20,20" paint-order="fill stroke markers" d="M 200 65 L 179 65"/><path fill="none" stroke="rgb(202,208,214)" stroke-miterlimit="10" stroke-width="2" stroke-dasharray="20,20" paint-order="fill stroke markers" d="M 200 65 L 179 65"/><path fill="rgb(255,255,255)" stroke="none" paint-order="fill stroke markers" d="M 160 85 L 140 85 L 140 45 L 160 45 L 160 45 A 20 20 0 0 1 160 85 Z"/><path fill="none" stroke="rgb(0,0,0)" stroke-linecap="square" stroke-miterlimit="10" paint-order="fill stroke markers" d="M 160 85 L 140 85 L 140 45 L 160 45 L 160 45 A 20 20 0 0 1 160 85 Z"/><path fill="none" stroke="rgb(0,0,0)" stroke-linecap="square" stroke-miterlimit="10" stroke-width="3" paint-order="fill stroke markers" d="M 160 85 L 140 85 L 140 45 L 160 45 L 160 45 A 20 20 0 0 1 160 85 Z"/><path fill="rgb(152,158,164)" stroke="none" paint-order="fill stroke markers" d="M 116 55 A 4 4 180 1 1 116.00000199999984 55.00399999933334"/><path fill="none" stroke="rgb(80,80,80)" stroke-linecap="square" stroke-miterlimit="10" paint-order="fill stroke markers" d="M 116 55 A 4 4 180 1 1 116.00000199999984 55.00399999933334"/><path fill="rgb(152,158,164)" stroke="none" paint-order="fill stroke markers" d="M 116 75 A 4 4 180 1 1 116.00000199999984 75.00399999933333"/><path fill="none" stroke="rgb(80,80,80)" stroke-linecap="square" stroke-miterlimit="10" paint-order="fill stroke markers" d="M 116 75 A 4 4 180 1 1 116.00000199999984 75.00399999933333"/><path fill="rgb(152,158,164)" stroke="none" paint-order="fill stroke markers" d="M 204 65 A 4 4 0 1 1 203.99999800000018 64.99600000066667"/><path fill="none" stroke="rgb(80,80,80)" stroke-linecap="square" stroke-miterlimit="10" paint-order="fill stroke markers" d="M 204 65 A 4 4 0 1 1 203.99999800000018 64.99600000066667"/></g><g class="GateN"><path fill="none" stroke="rgb(80,80,80)" stroke-miterlimit="10" stroke-width="4" paint-order="fill stroke markers" d="M 220 65 L 245 65"/><path fill="none" stroke="rgb(152,158,164)" stroke-miterlimit="10" stroke-width="2" stroke-dasharray="20,20" paint-order="fill stroke markers" d="M 220 65 L 245 65"/><path fill="none" stroke="rgb(202,208,214)" stroke-miterlimit="10" stroke-width="2" stroke-dasharray="20,20" paint-order="fill stroke markers" d="M 220 65 L 245 65"/><path fill="none" stroke="rgb(80,80,80)" stroke-miterlimit="10" stroke-width="4" paint-order="fill stroke markers" d="M 220 85 L 245 85"/><path fill="none" stroke="rgb(152,158,164)" stroke-miterlimit="10" stroke-width="2" stroke-dasharray="20,20" paint-order="fill stroke markers" d="M 220 85 L 245 85"/><path fill="none" stroke="rgb(202,208,214)" stroke-miterlimit="10" stroke-width="2" stroke-dasharray="20,20" paint-order="fill stroke markers" d="M 220 85 L 245 85"/><path fill="none" stroke="rgb(80,80,80)" stroke-miterlimit="10" stroke-width="4" paint-order="fill stroke markers" d="M 300 75 L 279 75"/><path fill="none" stroke="rgb(152,158,164)" stroke-miterlimit="10" stroke-width="2" stroke-dasharray="20,20" paint-order="fill stroke markers" d="M 300 75 L 279 75"/><path fill="none" stroke="rgb(202,208,214)" stroke-miterlimit="10" stroke-width="2" stroke-dasharray="20,20" paint-order="fill stroke markers" d="M 300 75 L 279 75"/><path fill="rgb(255,255,255)" stroke="none" paint-order="fill stroke markers" d="M 240 55 L 245 55 C 270 55 275 67 280 75 C 275 83 270 95 245 95 L 240 95 Q 252 75 240 55 Z"/><path fill="none" stroke="rgb(0,0,0)" stroke-linecap="square" stroke-miterlimit="10" stroke-width="3" paint-order="fill stroke markers" d="M 240 55 L 245 55 C 270 55 275 67 280 75 C 275 83 270 95 245 95 L 240 95 Q 252 75 240 55 Z"/><path fill="rgb(152,158,164)" stroke="none" paint-order="fill stroke markers" d="M 216 65 A 4 4 180 1 1 216.00000199999982 65.00399999933333"/><path fill="none" stroke="rgb(80,80,80)" stroke-linecap="square" stroke-miterlimit="10" paint-order="fill stroke markers" d="M 216 65 A 4 4 180 1 1 216.00000199999982 65.00399999933333"/><path fill="rgb(152,158,164)" stroke="none" paint-order="fill stroke markers" d="M 216 85 A 4 4 180 1 1 216.00000199999982 85.00399999933333"/><path fill="none" stroke="rgb(80,80,80)" stroke-linecap="square" stroke-miterlimit="10" paint-order="fill stroke markers" d="M 216 85 A 4 4 180 1 1 216.00000199999982 85.00399999933333"/><path fill="rgb(152,158,164)" stroke="none" paint-order="fill stroke markers" d="M 304 75 A 4 4 0 1 1 303.9999980000002 74.99600000066667"/><path fill="none" stroke="rgb(80,80,80)" stroke-linecap="square" stroke-miterlimit="10" paint-order="fill stroke markers" d="M 304 75 A 4 4 0 1 1 303.9999980000002 74.99600000066667"/></g><g class="Output"><path fill="none" stroke="rgb(80,80,80)" stroke-miterlimit="10" stroke-width="4" paint-order="fill stroke markers" d="M 300 75 L 330 75"/><path fill="none" stroke="rgb(152,158,164)" stroke-miterlimit="10" stroke-width="2" stroke-dasharray="20,20" paint-order="fill stroke markers" d="M 300 75 L 330 75"/><path fill="none" stroke="rgb(202,208,214)" stroke-miterlimit="10" stroke-width="2" stroke-dasharray="20,20" paint-order="fill stroke markers" d="M 300 75 L 330 75"/><path fill="rgb(0,0,0)" stroke="none" paint-order="fill stroke markers" d="M 312 70 L 312 80 L 316 75 Z"/><path fill="none" stroke="rgb(0,0,0)" stroke-linecap="square" stroke-miterlimit="10" stroke-width="2" paint-order="fill stroke markers" d="M 312 70 L 312 80 L 316 75 Z"/><path fill="rgb(152,158,164)" stroke="none" paint-order="fill stroke markers" d="M 343 75 A 13 13 0 1 1 342.9999935000005 74.98700000216665"/><path fill="none" stroke="rgb(0,0,0)" stroke-linecap="square" stroke-miterlimit="10" stroke-width="4" paint-order="fill stroke markers" d="M 343 75 A 13 13 0 1 1 342.9999935000005 74.98700000216665"/><text fill="rgb(0,0,0)" stroke="none" font-family="sans-serif" font-size="18px" font-style="italic" font-weight="normal" text-decoration="" x="350" y="75" text-anchor="start" dominant-baseline="central">X</text><text fill="rgb(255,255,255)" stroke="none" font-family="sans-serif" font-size="18px" font-style="normal" font-weight="bold" text-decoration="" x="330" y="75" text-anchor="middle" dominant-baseline="central">?</text><path fill="rgb(152,158,164)" stroke="none" paint-order="fill stroke markers" d="M 296 75 A 4 4 180 1 1 296.0000019999998 75.00399999933333"/><path fill="none" stroke="rgb(80,80,80)" stroke-linecap="square" stroke-miterlimit="10" paint-order="fill stroke markers" d="M 296 75 A 4 4 180 1 1 296.0000019999998 75.00399999933333"/></g><g class="Output"><path fill="none" stroke="rgb(80,80,80)" stroke-miterlimit="10" stroke-width="4" paint-order="fill stroke markers" d="M 300 125 L 330 125"/><path fill="none" stroke="rgb(152,158,164)" stroke-miterlimit="10" stroke-width="2" stroke-dasharray="20,20" paint-order="fill stroke markers" d="M 300 125 L 330 125"/><path fill="none" stroke="rgb(202,208,214)" stroke-miterlimit="10" stroke-width="2" stroke-dasharray="20,20" paint-order="fill stroke markers" d="M 300 125 L 330 125"/><path fill="rgb(0,0,0)" stroke="none" paint-order="fill stroke markers" d="M 312 120 L 312 130 L 316 125 Z"/><path fill="none" stroke="rgb(0,0,0)" stroke-linecap="square" stroke-miterlimit="10" stroke-width="2" paint-order="fill stroke markers" d="M 312 120 L 312 130 L 316 125 Z"/><path fill="rgb(152,158,164)" stroke="none" paint-order="fill stroke markers" d="M 343 125 A 13 13 0 1 1 342.9999935000005 124.98700000216665"/><path fill="none" stroke="rgb(0,0,0)" stroke-linecap="square" stroke-miterlimit="10" stroke-width="4" paint-order="fill stroke markers" d="M 343 125 A 13 13 0 1 1 342.9999935000005 124.98700000216665"/><text fill="rgb(0,0,0)" stroke="none" font-family="sans-serif" font-size="18px" font-style="italic" font-weight="normal" text-decoration="" x="350" y="125" text-anchor="start" dominant-baseline="central">Y</text><text fill="rgb(255,255,255)" stroke="none" font-family="sans-serif" font-size="18px" font-style="normal" font-weight="bold" text-decoration="" x="330" y="125" text-anchor="middle" dominant-baseline="central">?</text><path fill="rgb(152,158,164)" stroke="none" paint-order="fill stroke markers" d="M 296 125 A 4 4 180 1 1 296.0000019999998 125.00399999933333"/><path fill="none" stroke="rgb(80,80,80)" stroke-linecap="square" stroke-miterlimit="10" paint-order="fill stroke markers" d="M 296 125 A 4 4 180 1 1 296.0000019999998 125.00399999933333"/></g></g><g class="overlays"/></g></svg>