<svg version="1.1" xmlns="http://www.w3.org/2000/svg" xmlns:xlink="http://www.w3.org/1999/xlink" width="430" height="120"><metadata>{ // JSON5
  v: 6,
  opts: {hideWireColors: true, hideInputColors: true, hideOutputColors: true},
  components: {
    and0: {type: 'and', pos: [155, 45], in: [0, 1], out: 2},
    or0: {type: 'or', pos: [275, 60], in: [3, 4], out: 5},
    in0: {type: 'in', pos: [45, 25], id: 6, name: 'A'},
    in1: {type: 'in', pos: [45, 60], id: 7, name: 'B'},
    in2: {type: 'in', pos: [45, 95], id: 8, name: 'C'},
    out0: {type: 'out', pos: [385, 60], id: 9, name: 'Y'},
    out1: {type: 'out', pos: [385, 95], id: 10, name: 'Z'},
    out2: {type: 'out', pos: [385, 25], id: 11, name: 'X'},
  },
  wires: [[2, 3], [6, 0], [7, 1], [8, 4], [5, 9], [8, 10], [2, 11, {via: [[235, 25]]}]]
}</metadata><g/><g><g class="background"/><g class="wires"><path fill="none" stroke="rgb(80,80,80)" stroke-miterlimit="10" stroke-width="4" stroke-dasharray="40.52366256713867,40.52366256713867" paint-order="fill stroke markers" d="M195 45 C220 45,210 50,235 50 "/><path fill="none" stroke="rgb(152,158,164)" stroke-miterlimit="10" stroke-width="2" stroke-dasharray="40.52366256713867,40.52366256713867" paint-order="fill stroke markers" d="M195 45 C220 45,210 50,235 50 "/><path fill="none" stroke="rgb(80,80,80)" stroke-miterlimit="10" stroke-width="4" stroke-dasharray="42.00061798095703,42.00061798095703" paint-order="fill stroke markers" d="M75 25 C100 25,90 35,115 35 "/><path fill="none" stroke="rgb(152,158,164)" stroke-miterlimit="10" stroke-width="2" stroke-dasharray="42.00061798095703,42.00061798095703" paint-order="fill stroke markers" d="M75 25 C100 25,90 35,115 35 "/><path fill="none" stroke="rgb(80,80,80)" stroke-miterlimit="10" stroke-width="4" stroke-dasharray="40.523658752441406,40.523658752441406" paint-order="fill stroke markers" d="M75 60 C100 60,90 55,115 55 "/><path fill="none" stroke="rgb(152,158,164)" stroke-miterlimit="10" stroke-width="2" stroke-dasharray="40.523658752441406,40.523658752441406" paint-order="fill stroke markers" d="M75 60 C100 60,90 55,115 55 "/><path fill="none" stroke="rgb(80,80,80)" stroke-miterlimit="10" stroke-width="4" stroke-dasharray="162.31973266601562,162.31973266601562" paint-order="fill stroke markers" d="M75 95 C128.33333333333334 95,181.66666666666666 70,235 70 "/><path fill="none" stroke="rgb(152,158,164)" stroke-miterlimit="10" stroke-width="2" stroke-dasharray="162.31973266601562,162.31973266601562" paint-order="fill stroke markers" d="M75 95 C128.33333333333334 95,181.66666666666666 70,235 70 "/><path fill="none" stroke="rgb(80,80,80)" stroke-miterlimit="10" stroke-width="4" stroke-dasharray="48,48" paint-order="fill stroke markers" d="M315 60 M311 60 L315 60 L355 60 L359 60 "/><path fill="none" stroke="rgb(152,158,164)" stroke-miterlimit="10" stroke-width="2" stroke-dasharray="48,48" paint-order="fill stroke markers" d="M315 60 M311 60 L315 60 L355 60 L359 60 "/><path fill="none" stroke="rgb(80,80,80)" stroke-miterlimit="10" stroke-width="4" stroke-dasharray="288,288" paint-order="fill stroke markers" d="M75 95 M71 95 L75 95 L355 95 L359 95 "/><path fill="none" stroke="rgb(152,158,164)" stroke-miterlimit="10" stroke-width="2" stroke-dasharray="288,288" paint-order="fill stroke markers" d="M75 95 M71 95 L75 95 L355 95 L359 95 "/><path fill="none" stroke="rgb(80,80,80)" stroke-miterlimit="10" stroke-width="4" stroke-dasharray="171.00274658203125,171.00274658203125" paint-order="fill stroke markers" d="M195 45 C220 45,210 25,235 25 L355 25 L359 25 "/><path fill="none" stroke="rgb(152,158,164)" stroke-miterlimit="10" stroke-width="2" stroke-dasharray="171.00274658203125,171.00274658203125" paint-order="fill stroke markers" d="M195 45 C220 45,210 25,235 25 L355 25 L359 25 "/><path fill="rgb(152,158,164)" stroke="none" paint-order="fill stroke markers" d="M 239 25 A 4 4 0 1 1 238.99999800000018 24.996000000666665"/><path fill="none" stroke="rgb(80,80,80)" stroke-linecap="square" stroke-miterlimit="10" paint-order="fill stroke markers" d="M 239 25 A 4 4 0 1 1 238.99999800000018 24.996000000666665"/></g><g class="components"><g class="GateN"><path fill="none" stroke="rgb(80,80,80)" stroke-miterlimit="10" stroke-width="4" paint-order="fill stroke markers" d="M 115 35 L 135 35"/><path fill="none" stroke="rgb(152,158,164)" stroke-miterlimit="10" stroke-width="2" stroke-dasharray="20,20" paint-order="fill stroke markers" d="M 115 35 L 135 35"/><path fill="none" stroke="rgb(202,208,214)" stroke-miterlimit="10" stroke-width="2" stroke-dasharray="20,20" paint-order="fill stroke markers" d="M 115 35 L 135 35"/><path fill="none" stroke="rgb(80,80,80)" stroke-miterlimit="10" stroke-width="4" paint-order="fill stroke markers" d="M 115 55 L 135 55"/><path fill="none" stroke="rgb(152,158,164)" stroke-miterlimit="10" stroke-width="2" stroke-dasharray="20,20" paint-order="fill stroke markers" d="M 115 55 L 135 55"/><path fill="none" stroke="rgb(202,208,214)" stroke-miterlimit="10" stroke-width="2" stroke-dasharray="20,20" paint-order="fill stroke markers" d="M 115 55 L 135 55"/><path fill="none" stroke="rgb(80,80,80)" stroke-miterlimit="10" stroke-width="4" paint-order="fill stroke markers" d="M 195 45 L 174 45"/><path fill="none" stroke="rgb(152,158,164)" stroke-miterlimit="10" stroke-width="2" stroke-dasharray="20,20" paint-order="fill stroke markers" d="M 195 45 L 174 45"/><path fill="none" stroke="rgb(202,208,214)" stroke-miterlimit="10" stroke-width="2" stroke-dasharray="20,20" paint-order="fill stroke markers" d="M 195 45 L 174 45"/><path fill="rgb(255,255,255)" stroke="none" paint-order="fill stroke markers" d="M 155 65 L 135 65 L 135 25 L 155 25 L 155 25 A 20 20 0 0 1 155 65 Z"/><path fill="none" stroke="rgb(0,0,0)" stroke-linecap="square" stroke-miterlimit="10" paint-order="fill stroke markers" d="M 155 65 L 135 65 L 135 25 L 155 25 L 155 25 A 20 20 0 0 1 155 65 Z"/><path fill="none" stroke="rgb(0,0,0)" stroke-linecap="square" stroke-miterlimit="10" stroke-width="3" paint-order="fill stroke markers" d="M 155 65 L 135 65 L 135 25 L 155 25 L 155 25 A 20 20 0 0 1 155 65 Z"/><path fill="rgb(152,158,164)" stroke="none" paint-order="fill stroke markers" d="M 111 35 A 4 4 180 1 1 111.00000199999984 35.00399999933334"/><path fill="none" stroke="rgb(80,80,80)" stroke-linecap="square" stroke-miterlimit="10" paint-order="fill stroke markers" d="M 111 35 A 4 4 180 1 1 111.00000199999984 35.00399999933334"/><path fill="rgb(152,158,164)" stroke="none" paint-order="fill stroke markers" d="M 111 55 A 4 4 180 1 1 111.00000199999984 55.00399999933334"/><path fill="none" stroke="rgb(80,80,80)" stroke-linecap="square" stroke-miterlimit="10" paint-order="fill stroke markers" d="M 111 55 A 4 4 180 1 1 111.00000199999984 55.00399999933334"/><path fill="rgb(152,158,164)" stroke="none" paint-order="fill stroke markers" d="M 199 45 A 4 4 0 1 1 198.99999800000018 44.99600000066666"/><path fill="none" stroke="rgb(80,80,80)" stroke-linecap="square" stroke-miterlimit="10" paint-order="fill stroke markers" d="M 199 45 A 4 4 0 1 1 198.99999800000018 44.99600000066666"/></g><g class="GateN"><path fill="none" stroke="rgb(80,80,80)" stroke-miterlimit="10" stroke-width="4" paint-order="fill stroke markers" d="M 235 50 L 260 50"/><path fill="none" stroke="rgb(152,158,164)" stroke-miterlimit="10" stroke-width="2" stroke-dasharray="20,20" paint-order="fill stroke markers" d="M 235 50 L 260 50"/><path fill="none" stroke="rgb(202,208,214)" stroke-miterlimit="10" stroke-width="2" stroke-dasharray="20,20" paint-order="fill stroke markers" d="M 235 50 L 260 50"/><path fill="none" stroke="rgb(80,80,80)" stroke-miterlimit="10" stroke-width="4" paint-order="fill stroke markers" d="M 235 70 L 260 70"/><path fill="none" stroke="rgb(152,158,164)" stroke-miterlimit="10" stroke-width="2" stroke-dasharray="20,20" paint-order="fill stroke markers" d="M 235 70 L 260 70"/><path fill="none" stroke="rgb(202,208,214)" stroke-miterlimit="10" stroke-width="2" stroke-dasharray="20,20" paint-order="fill stroke markers" d="M 235 70 L 260 70"/><path fill="none" stroke="rgb(80,80,80)" stroke-miterlimit="10" stroke-width="4" paint-order="fill stroke markers" d="M 315 60 L 294 60"/><path fill="none" stroke="rgb(152,158,164)" stroke-miterlimit="10" stroke-width="2" stroke-dasharray="20,20" paint-order="fill stroke markers" d="M 315 60 L 294 60"/><path fill="none" stroke="rgb(202,208,214)" stroke-miterlimit="10" stroke-width="2" stroke-dasharray="20,20" paint-order="fill stroke markers" d="M 315 60 L 294 60"/><path fill="rgb(255,255,255)" stroke="none" paint-order="fill stroke markers" d="M 255 40 L 260 40 C 285 40 290 52 295 60 C 290 68 285 80 260 80 L 255 80 Q 267 60 255 40 Z"/><path fill="none" stroke="rgb(0,0,0)" stroke-linecap="square" stroke-miterlimit="10" stroke-width="3" paint-order="fill stroke markers" d="M 255 40 L 260 40 C 285 40 290 52 295 60 C 290 68 285 80 260 80 L 255 80 Q 267 60 255 40 Z"/><path fill="rgb(152,158,164)" stroke="none" paint-order="fill stroke markers" d="M 231 50 A 4 4 180 1 1 231.00000199999982 50.00399999933334"/><path fill="none" stroke="rgb(80,80,80)" stroke-linecap="square" stroke-miterlimit="10" paint-order="fill stroke markers" d="M 231 50 A 4 4 180 1 1 231.00000199999982 50.00399999933334"/><path fill="rgb(152,158,164)" stroke="none" paint-order="fill stroke markers" d="M 231 70 A 4 4 180 1 1 231.00000199999982 70.00399999933333"/><path fill="none" stroke="rgb(80,80,80)" stroke-linecap="square" stroke-miterlimit="10" paint-order="fill stroke markers" d="M 231 70 A 4 4 180 1 1 231.00000199999982 70.00399999933333"/><path fill="rgb(152,158,164)" stroke="none" paint-order="fill stroke markers" d="M 319 60 A 4 4 0 1 1 318.9999980000002 59.99600000066666"/><path fill="none" stroke="rgb(80,80,80)" stroke-linecap="square" stroke-miterlimit="10" paint-order="fill stroke markers" d="M 319 60 A 4 4 0 1 1 318.9999980000002 59.99600000066666"/></g><g class="Input"><path fill="none" stroke="rgb(80,80,80)" stroke-miterlimit="10" stroke-width="4" paint-order="fill stroke markers" d="M 75 25 L 53 25"/><path fill="none" stroke="rgb(152,158,164)" stroke-miterlimit="10" stroke-width="2" stroke-dasharray="20,20" paint-order="fill stroke markers" d="M 75 25 L 53 25"/><path fill="none" stroke="rgb(202,208,214)" stroke-miterlimit="10" stroke-width="2" stroke-dasharray="20,20" paint-order="fill stroke markers" d="M 75 25 L 53 25"/><path fill="rgb(0,0,0)" stroke="none" paint-order="fill stroke markers" d="M 57 31.75 L 63 25 L 57 18.25 Z"/><path fill="none" stroke="rgb(0,0,0)" stroke-linecap="square" stroke-miterlimit="10" stroke-width="3" paint-order="fill stroke markers" d="M 57 31.75 L 63 25 L 57 18.25 Z"/><path fill="rgb(152,158,164)" stroke="none" paint-order="fill stroke markers" d="M 58 25 A 13 13 0 1 1 57.99999350000054 24.98700000216666"/><path fill="none" stroke="rgb(0,0,0)" stroke-linecap="square" stroke-miterlimit="10" stroke-width="4" paint-order="fill stroke markers" d="M 58 25 A 13 13 0 1 1 57.99999350000054 24.98700000216666"/><text fill="rgb(0,0,0)" stroke="none" font-family="sans-serif" font-size="18px" font-style="italic" font-weight="normal" text-decoration="" x="23" y="25" text-anchor="end" dominant-baseline="central">A</text><text fill="rgb(255,255,255)" stroke="none" font-family="sans-serif" font-size="18px" font-style="normal" font-weight="bold" text-decoration="" x="45" y="25" text-anchor="middle" dominant-baseline="central">?</text><path fill="rgb(152,158,164)" stroke="none" paint-order="fill stroke markers" d="M 79 25 A 4 4 0 1 1 78.99999800000016 24.996000000666665"/><path fill="none" stroke="rgb(80,80,80)" stroke-linecap="square" stroke-miterlimit="10" paint-order="fill stroke markers" d="M 79 25 A 4 4 0 1 1 78.99999800000016 24.996000000666665"/></g><g class="Input"><path fill="none" stroke="rgb(80,80,80)" stroke-miterlimit="10" stroke-width="4" paint-order="fill stroke markers" d="M 75 60 L 53 60"/><path fill="none" stroke="rgb(152,158,164)" stroke-miterlimit="10" stroke-width="2" stroke-dasharray="20,20" paint-order="fill stroke markers" d="M 75 60 L 53 60"/><path fill="none" stroke="rgb(202,208,214)" stroke-miterlimit="10" stroke-width="2" stroke-dasharray="20,20" paint-order="fill stroke markers" d="M 75 60 L 53 60"/><path fill="rgb(0,0,0)" stroke="none" paint-order="fill stroke markers" d="M 57 66.75 L 63 60 L 57 53.25 Z"/><path fill="none" stroke="rgb(0,0,0)" stroke-linecap="square" stroke-miterlimit="10" stroke-width="3" paint-order="fill stroke markers" d="M 57 66.75 L 63 60 L 57 53.25 Z"/><path fill="rgb(152,158,164)" stroke="none" paint-order="fill stroke markers" d="M 58 60 A 13 13 0 1 1 57.99999350000054 59.98700000216666"/><path fill="none" stroke="rgb(0,0,0)" stroke-linecap="square" stroke-miterlimit="10" stroke-width="4" paint-order="fill stroke markers" d="M 58 60 A 13 13 0 1 1 57.99999350000054 59.98700000216666"/><text fill="rgb(0,0,0)" stroke="none" font-family="sans-serif" font-size="18px" font-style="italic" font-weight="normal" text-decoration="" x="23" y="60" text-anchor="end" dominant-baseline="central">B</text><text fill="rgb(255,255,255)" stroke="none" font-family="sans-serif" font-size="18px" font-style="normal" font-weight="bold" text-decoration="" x="45" y="60" text-anchor="middle" dominant-baseline="central">?</text><path fill="rgb(152,158,164)" stroke="none" paint-order="fill stroke markers" d="M 79 60 A 4 4 0 1 1 78.99999800000016 59.99600000066666"/><path fill="none" stroke="rgb(80,80,80)" stroke-linecap="square" stroke-miterlimit="10" paint-order="fill stroke markers" d="M 79 60 A 4 4 0 1 1 78.99999800000016 59.99600000066666"/></g><g class="Input"><path fill="none" stroke="rgb(80,80,80)" stroke-miterlimit="10" stroke-width="4" paint-order="fill stroke markers" d="M 75 95 L 53 95"/><path fill="none" stroke="rgb(152,158,164)" stroke-miterlimit="10" stroke-width="2" stroke-dasharray="20,20" paint-order="fill stroke markers" d="M 75 95 L 53 95"/><path fill="none" stroke="rgb(202,208,214)" stroke-miterlimit="10" stroke-width="2" stroke-dasharray="20,20" paint-order="fill stroke markers" d="M 75 95 L 53 95"/><path fill="rgb(0,0,0)" stroke="none" paint-order="fill stroke markers" d="M 57 101.75 L 63 95 L 57 88.25 Z"/><path fill="none" stroke="rgb(0,0,0)" stroke-linecap="square" stroke-miterlimit="10" stroke-width="3" paint-order="fill stroke markers" d="M 57 101.75 L 63 95 L 57 88.25 Z"/><path fill="rgb(152,158,164)" stroke="none" paint-order="fill stroke markers" d="M 58 95 A 13 13 0 1 1 57.99999350000054 94.98700000216665"/><path fill="none" stroke="rgb(0,0,0)" stroke-linecap="square" stroke-miterlimit="10" stroke-width="4" paint-order="fill stroke markers" d="M 58 95 A 13 13 0 1 1 57.99999350000054 94.98700000216665"/><text fill="rgb(0,0,0)" stroke="none" font-family="sans-serif" font-size="18px" font-style="italic" font-weight="normal" text-decoration="" x="23" y="95" text-anchor="end" dominant-baseline="central">C</text><text fill="rgb(255,255,255)" stroke="none" font-family="sans-serif" font-size="18px" font-style="normal" font-weight="bold" text-decoration="" x="45" y="95" text-anchor="middle" dominant-baseline="central">?</text><path fill="rgb(152,158,164)" stroke="none" paint-order="fill stroke markers" d="M 79 95 A 4 4 0 1 1 78.99999800000016 94.99600000066667"/><path fill="none" stroke="rgb(80,80,80)" stroke-linecap="square" stroke-miterlimit="10" paint-order="fill stroke markers" d="M 79 95 A 4 4 0 1 1 78.99999800000016 94.99600000066667"/></g><g class="Output"><path fill="none" stroke="rgb(80,80,80)" stroke-miterlimit="10" stroke-width="4" paint-order="fill stroke markers" d="M 355 60 L 385 60"/><path fill="none" stroke="rgb(152,158,164)" stroke-miterlimit="10" stroke-width="2" stroke-dasharray="20,20" paint-order="fill stroke markers" d="M 355 60 L 385 60"/><path fill="none" stroke="rgb(202,208,214)" stroke-miterlimit="10" stroke-width="2" stroke-dasharray="20,20" paint-order="fill stroke markers" d="M 355 60 L 385 60"/><path fill="rgb(0,0,0)" stroke="none" paint-order="fill stroke markers" d="M 367 55 L 367 65 L 371 60 Z"/><path fill="none" stroke="rgb(0,0,0)" stroke-linecap="square" stroke-miterlimit="10" stroke-width="2" paint-order="fill stroke markers" d="M 367 55 L 367 65 L 371 60 Z"/><path fill="rgb(152,158,164)" stroke="none" paint-order="fill stroke markers" d="M 398 60 A 13 13 0 1 1 397.9999935000005 59.98700000216666"/><path fill="none" stroke="rgb(0,0,0)" stroke-linecap="square" stroke-miterlimit="10" stroke-width="4" paint-order="fill stroke markers" d="M 398 60 A 13 13 0 1 1 397.9999935000005 59.98700000216666"/><text fill="rgb(0,0,0)" stroke="none" font-family="sans-serif" font-size="18px" font-style="italic" font-weight="normal" text-decoration="" x="405" y="60" text-anchor="start" dominant-baseline="central">Y</text><text fill="rgb(255,255,255)" stroke="none" font-family="sans-serif" font-size="18px" font-style="normal" font-weight="bold" text-decoration="" x="385" y="60" text-anchor="middle" dominant-baseline="central">?</text><path fill="rgb(152,158,164)" stroke="none" paint-order="fill stroke markers" d="M 351 60 A 4 4 180 1 1 351.0000019999998 60.00399999933334"/><path fill="none" stroke="rgb(80,80,80)" stroke-linecap="square" stroke-miterlimit="10" paint-order="fill stroke markers" d="M 351 60 A 4 4 180 1 1 351.0000019999998 60.00399999933334"/></g><g class="Output"><path fill="none" stroke="rgb(80,80,80)" stroke-miterlimit="10" stroke-width="4" paint-order="fill stroke markers" d="M 355 95 L 385 95"/><path fill="none" stroke="rgb(152,158,164)" stroke-miterlimit="10" stroke-width="2" stroke-dasharray="20,20" paint-order="fill stroke markers" d="M 355 95 L 385 95"/><path fill="none" stroke="rgb(202,208,214)" stroke-miterlimit="10" stroke-width="2" stroke-dasharray="20,20" paint-order="fill stroke markers" d="M 355 95 L 385 95"/><path fill="rgb(0,0,0)" stroke="none" paint-order="fill stroke markers" d="M 367 90 L 367 100 L 371 95 Z"/><path fill="none" stroke="rgb(0,0,0)" stroke-linecap="square" stroke-miterlimit="10" stroke-width="2" paint-order="fill stroke markers" d="M 367 90 L 367 100 L 371 95 Z"/><path fill="rgb(152,158,164)" stroke="none" paint-order="fill stroke markers" d="M 398 95 A 13 13 0 1 1 397.9999935000005 94.98700000216665"/><path fill="none" stroke="rgb(0,0,0)" stroke-linecap="square" stroke-miterlimit="10" stroke-width="4" paint-order="fill stroke markers" d="M 398 95 A 13 13 0 1 1 397.9999935000005 94.98700000216665"/><text fill="rgb(0,0,0)" stroke="none" font-family="sans-serif" font-size="18px" font-style="italic" font-weight="normal" text-decoration="" x="405" y="95" text-anchor="start" dominant-baseline="central">Z</text><text fill="rgb(255,255,255)" stroke="none" font-family="sans-serif" font-size="18px" font-style="normal" font-weight="bold" text-decoration="" x="385" y="95" text-anchor="middle" dominant-baseline="central">?</text><path fill="rgb(152,158,164)" stroke="none" paint-order="fill stroke markers" d="M 351 95 A 4 4 180 1 1 351.0000019999998 95.00399999933333"/><path fill="none" stroke="rgb(80,80,80)" stroke-linecap="square" stroke-miterlimit="10" paint-order="fill stroke markers" d="M 351 95 A 4 4 180 1 1 351.0000019999998 95.00399999933333"/></g><g class="Output"><path fill="none" stroke="rgb(80,80,80)" stroke-miterlimit="10" stroke-width="4" paint-order="fill stroke markers" d="M 355 25 L 385 25"/><path fill="none" stroke="rgb(152,158,164)" stroke-miterlimit="10" stroke-width="2" stroke-dasharray="20,20" paint-order="fill stroke markers" d="M 355 25 L 385 25"/><path fill="none" stroke="rgb(202,208,214)" stroke-miterlimit="10" stroke-width="2" stroke-dasharray="20,20" paint-order="fill stroke markers" d="M 355 25 L 385 25"/><path fill="rgb(0,0,0)" stroke="none" paint-order="fill stroke markers" d="M 367 20 L 367 30 L 371 25 Z"/><path fill="none" stroke="rgb(0,0,0)" stroke-linecap="square" stroke-miterlimit="10" stroke-width="2" paint-order="fill stroke markers" d="M 367 20 L 367 30 L 371 25 Z"/><path fill="rgb(152,158,164)" stroke="none" paint-order="fill stroke markers" d="M 398 25 A 13 13 0 1 1 397.9999935000005 24.98700000216666"/><path fill="none" stroke="rgb(0,0,0)" stroke-linecap="square" stroke-miterlimit="10" stroke-width="4" paint-order="fill stroke markers" d="M 398 25 A 13 13 0 1 1 397.9999935000005 24.98700000216666"/><text fill="rgb(0,0,0)" stroke="none" font-family="sans-serif" font-size="18px" font-style="italic" font-weight="normal" text-decoration="" x="405" y="25" text-anchor="start" dominant-baseline="central">X</text><text fill="rgb(255,255,255)" stroke="none" font-family="sans-serif" font-size="18px" font-style="normal" font-weight="bold" text-decoration="" x="385" y="25" text-anchor="middle" dominant-baseline="central">?</text><path fill="rgb(152,158,164)" stroke="none" paint-order="fill stroke markers" d="M 351 25 A 4 4 180 1 1 351.0000019999998 25.003999999333335"/><path fill="none" stroke="rgb(80,80,80)" stroke-linecap="square" stroke-miterlimit="10" paint-order="fill stroke markers" d="M 351 25 A 4 4 180 1 1 351.0000019999998 25.003999999333335"/></g></g><g class="overlays"/></g></svg>